<svg width="311" height="237" viewBox="0 0 311 237" fill="none" xmlns="http://www.w3.org/2000/svg">
<g clip-path="url(#clip0_282_203)">
<path fill-rule="evenodd" clip-rule="evenodd" d="M205 103.125C213.414 123.502 190.92 132.697 181.283 135.585C181.01 135.667 180.762 135.751 180.538 135.839C178.723 135.227 176.78 134.895 174.76 134.895H149.046H149.038C139.063 134.895 130.957 142.988 130.957 152.963V191.34H192.841V157.883C192.841 157.883 192.841 157.882 192.841 157.882C239.718 141.45 225.851 100.552 224.354 96.139C224.342 96.1027 224.331 96.0688 224.32 96.0375C223.093 92.4075 218.886 93.6757 211.966 95.7617C211.136 96.0117 210.268 96.2735 209.361 96.54C200.887 99.03 205 103.125 205 103.125Z" fill="url(#paint0_linear_282_203)"/>
<path d="M206.936 97.5535C206.936 97.5535 195.144 90.376 200.368 82.096C205.592 73.816 206.485 80.116 205.262 83.4685C204.039 86.821 211.056 89.716 210.756 80.5735C210.448 71.431 204.384 67.771 204.902 65.7835C205.42 63.796 207.859 59.9935 217.624 73.711C227.389 87.4285 216.701 104.626 206.943 97.5535H206.936Z" fill="url(#paint1_linear_282_203)"/>
<path d="M150.967 133.17H172.846V135.855C172.846 141.54 168.222 146.16 162.533 146.16H161.28C155.59 146.16 150.967 141.54 150.967 135.855V133.17Z" fill="url(#paint2_linear_282_203)"/>
<path d="M155.823 76.6133H166.646C180.006 76.6133 190.852 87.4508 190.852 100.801V112.913C190.852 129.248 177.582 142.508 161.234 142.508C144.887 142.508 131.617 129.248 131.617 112.913V100.801C131.617 87.4508 142.463 76.6133 155.823 76.6133Z" fill="url(#paint3_linear_282_203)"/>
<path d="M160.754 92.7607C160.754 92.7607 145.592 100.043 128.615 99.2782C111.637 98.5132 122.25 71.4757 145.608 62.6932C165.835 55.0957 187.316 61.5532 197.974 82.6282C206.703 99.8932 195.137 103.516 170.541 92.6257C170.541 92.6257 167.119 90.2707 160.754 92.7607Z" fill="#444444"/>
<path d="M212.303 181.5H108.852C103.878 181.5 99.8457 185.529 99.8457 190.5V205.965C99.8457 210.936 103.878 214.965 108.852 214.965H212.303C217.277 214.965 221.309 210.936 221.309 205.965V190.5C221.309 185.529 217.277 181.5 212.303 181.5Z" fill="#304284"/>
<path d="M145.653 110.551C148.252 110.551 150.359 108.445 150.359 105.848C150.359 103.251 148.252 101.146 145.653 101.146C143.054 101.146 140.947 103.251 140.947 105.848C140.947 108.445 143.054 110.551 145.653 110.551Z" fill="#444444"/>
<path d="M158.532 0C92.0548 0 38.1719 53.0325 38.1719 118.455C38.1719 183.878 92.0548 236.91 158.525 236.91C224.995 236.91 278.878 183.878 278.878 118.455C278.878 53.0325 225.002 0 158.532 0ZM158.532 214.433C104.672 214.433 61.0115 171.465 61.0115 118.455C61.0115 65.445 104.672 22.4775 158.532 22.4775C212.393 22.4775 256.053 65.445 256.053 118.455C256.053 171.465 212.393 214.433 158.532 214.433Z" fill="url(#paint4_linear_282_203)"/>
<path d="M176.576 110.551C179.175 110.551 181.282 108.445 181.282 105.848C181.282 103.251 179.175 101.146 176.576 101.146C173.977 101.146 171.87 103.251 171.87 105.848C171.87 108.445 173.977 110.551 176.576 110.551Z" fill="#444444"/>
<path d="M157.211 123.048L162.916 124.634C163.979 124.93 164.607 126.031 164.31 127.1L164.267 127.252C163.615 129.593 161.182 130.972 158.832 130.318L157.379 129.914C155.101 129.281 153.765 126.916 154.399 124.64C154.737 123.426 155.994 122.717 157.209 123.055L157.211 123.048Z" fill="url(#paint5_linear_282_203)"/>
<path d="M145.653 105.848C146.515 105.848 147.214 105.149 147.214 104.288C147.214 103.426 146.515 102.728 145.653 102.728C144.791 102.728 144.092 103.426 144.092 104.288C144.092 105.149 144.791 105.848 145.653 105.848Z" fill="#F2F2F2"/>
<path d="M176.576 105.848C177.438 105.848 178.137 105.149 178.137 104.288C178.137 103.426 177.438 102.728 176.576 102.728C175.714 102.728 175.015 103.426 175.015 104.288C175.015 105.149 175.714 105.848 176.576 105.848Z" fill="#F2F2F2"/>
<g filter="url(#filter0_d_282_203)">
<path d="M108.515 59.5797L98.9232 76.7772L44.4172 46.4247C41.6852 44.9022 46.151 31.6422 47.6747 28.9122L48.4703 27.4872C49.9939 24.7572 53.4765 23.7672 56.2086 25.2822L106.782 53.4372C108.951 54.6447 109.731 57.4047 108.523 59.5722L108.515 59.5797Z" fill="#F4F4F4"/>
</g>
<path d="M129.809 176.513C129.809 176.513 142.306 172.358 149.391 181.351C156.484 190.351 148.888 187.966 143.582 184.118C138.275 180.271 131.986 187.058 136.947 187.741C141.908 188.423 138.966 193.628 132.999 190.763C127.032 187.898 121.2 179.933 129.801 176.506L129.809 176.513Z" fill="url(#paint6_linear_282_203)"/>
<path d="M143.641 136.44L143.589 136.395C142.215 135.098 140.279 134.595 138.447 135.075C123.323 139.05 85.5475 165.713 105.58 177.585C136.661 196.005 128.652 190.215 133.441 184.418C138.23 178.62 143.258 172.508 131.587 168.233C121.544 164.558 137.179 163.388 140.451 160.005C144.151 156.18 147.034 144.008 144.955 138.368C144.684 137.633 144.219 136.98 143.641 136.44Z" fill="url(#paint7_linear_282_203)"/>
<g filter="url(#filter1_d_282_203)">
<path d="M48.4696 27.4877L47.674 28.9202C46.1504 31.6502 47.1411 35.1302 49.8732 36.6452L100.469 64.8152C102.63 66.0227 103.411 68.7452 102.202 70.9052L73.2532 122.82C71.5269 125.918 67.609 127.028 64.5092 125.303L14.9495 97.7177C8.77982 94.2827 6.56566 86.5052 10.0032 80.3402L40.296 26.0402C43.7336 19.8752 51.5169 17.6627 57.6865 21.0977L107.231 48.6902C110.331 50.4152 111.442 54.3302 109.716 57.4277L108.515 59.5877C109.723 57.4202 108.935 54.6602 106.773 53.4527L56.2004 25.2902C53.4684 23.7677 49.9858 24.7577 48.4696 27.4877Z" fill="url(#paint8_linear_282_203)"/>
</g>
<g filter="url(#filter2_d_282_203)">
<path d="M287.817 93.592L269.46 98.7342C267.153 99.3804 265.807 101.773 266.454 104.078L267.182 106.671C267.828 108.976 270.223 110.321 272.53 109.675L290.886 104.533C293.193 103.887 294.539 101.494 293.893 99.1885L293.165 96.596C292.519 94.2907 290.124 92.9458 287.817 93.592Z" fill="url(#paint9_linear_282_203)"/>
</g>
<path d="M75.0327 35.8049L75.0477 35.7824L56.201 25.2899C53.469 23.7674 49.9864 24.7574 48.4702 27.4874L47.6596 28.9424C46.136 31.6724 47.1267 35.1524 49.8588 36.6674L68.7054 47.1599L68.7204 47.1374L100.469 64.8149C102.638 66.0224 103.411 68.7449 102.203 70.9124L99.8763 75.0899C102.496 70.3949 98.0224 68.5049 98.0224 68.5049L47.0592 40.1324C41.5275 37.0499 37.6096 30.8474 41.4975 24.2474C45.3254 19.4774 52.148 18.0149 57.6796 21.0974L108.928 49.6349C111.097 50.8424 111.87 53.5649 110.662 55.7324L108.335 59.9099C110.955 55.2149 106.481 53.3249 106.481 53.3249L75.0327 35.8124V35.8049Z" fill="#FF9AA2"/>
<path d="M46.6729 54.2362C48.2146 51.4719 47.2217 47.9822 44.4553 46.4417C41.6889 44.9012 38.1965 45.8933 36.6549 48.6576L19.5994 79.2394C18.0578 82.0038 19.0506 85.4935 21.817 87.034C24.5834 88.5745 28.0758 87.5824 29.6175 84.8181L46.6729 54.2362Z" fill="white"/>
<g filter="url(#filter3_d_282_203)">
<path d="M291.047 84.0377L261.742 92.2469C259.435 92.8931 258.089 95.2858 258.735 97.5911L259.463 100.184C260.11 102.489 262.504 103.834 264.811 103.188L294.117 94.9784C296.424 94.3321 297.77 91.9394 297.123 89.6342L296.396 87.0416C295.749 84.7363 293.354 83.3914 291.047 84.0377Z" fill="url(#paint10_linear_282_203)"/>
</g>
<g filter="url(#filter4_d_282_203)">
<path d="M300.337 33.8105C304.555 48.848 298.978 64.3205 287.42 73.418L289.424 80.558L261.683 88.328L259.686 81.203C245.08 79.433 232.261 69.113 228.043 54.068C222.451 34.1255 234.085 13.418 254.057 7.82298C274.022 2.22798 294.753 13.868 300.344 33.8105H300.337Z" fill="#FFE7AB"/>
</g>
<g filter="url(#filter5_d_282_203)">
<path d="M288.16 73.3921L258.854 81.6013C256.547 82.2476 255.201 84.6403 255.848 86.9456L256.575 89.5381C257.222 91.8434 259.616 93.1883 261.923 92.5421L291.229 84.3329C293.536 83.6866 294.882 81.2939 294.235 78.9886L293.508 76.3961C292.861 74.0908 290.467 72.7459 288.16 73.3921Z" fill="url(#paint11_linear_282_203)"/>
</g>
<path d="M256.901 27.4648L253.298 48.4573C253.133 49.4323 253.929 50.3773 254.724 50.1598L263.686 47.6473C264.384 47.4523 265.127 48.1798 265.135 49.0723L265.3 63.3073C265.315 64.8073 267.064 65.3548 267.424 63.9748L274.509 36.9973C274.772 36.0073 273.946 34.9423 273.106 35.1748L262.132 38.2498C261.517 38.4223 260.849 37.8823 260.714 37.0948L259.025 27.7423C258.77 26.3248 257.134 26.1073 256.901 27.4648Z" fill="#FAAC3A"/>
<g filter="url(#filter6_d_282_203)">
<path d="M140.947 33.3528V30.4653C140.947 29.9853 140.557 29.5953 140.076 29.5953H138.478C138.102 29.5953 137.772 29.3553 137.652 29.0028C137.539 28.6803 137.412 28.3728 137.262 28.0653C137.097 27.7278 137.164 27.3303 137.427 27.0603L138.56 25.9278C138.898 25.5903 138.898 25.0353 138.56 24.6903L136.511 22.6428C136.173 22.3053 135.618 22.3053 135.273 22.6428L134.139 23.7753C133.877 24.0378 133.471 24.1053 133.134 23.9403C132.826 23.7903 132.511 23.6628 132.195 23.5503C131.843 23.4303 131.602 23.1003 131.602 22.7253V21.1278C131.602 20.6478 131.212 20.2578 130.732 20.2578H127.842C127.362 20.2578 126.971 20.6478 126.971 21.1278V22.7253C126.971 23.1003 126.731 23.4303 126.379 23.5503C126.056 23.6628 125.748 23.7903 125.44 23.9403C125.103 24.1053 124.705 24.0378 124.435 23.7753L123.301 22.6428C122.963 22.3053 122.408 22.3053 122.063 22.6428L120.014 24.6903C119.676 25.0278 119.676 25.5828 120.014 25.9278L121.147 27.0603C121.41 27.3228 121.477 27.7278 121.312 28.0653C121.162 28.3728 121.035 28.6878 120.922 29.0028C120.802 29.3553 120.472 29.5953 120.096 29.5953H118.498C118.017 29.5953 117.627 29.9853 117.627 30.4653V33.3528C117.627 33.8328 118.017 34.2228 118.498 34.2228H120.096C120.472 34.2228 120.802 34.4628 120.922 34.8153C121.035 35.1378 121.162 35.4453 121.312 35.7528C121.477 36.0903 121.41 36.4878 121.147 36.7578L120.014 37.8903C119.676 38.2278 119.676 38.7828 120.014 39.1278L122.063 41.1753C122.401 41.5128 122.956 41.5128 123.301 41.1753L124.435 40.0428C124.697 39.7803 125.103 39.7128 125.44 39.8778C125.748 40.0278 126.063 40.1553 126.379 40.2678C126.731 40.3878 126.971 40.7178 126.971 41.0928V42.6903C126.971 43.1703 127.362 43.5603 127.842 43.5603H130.732C131.212 43.5603 131.602 43.1703 131.602 42.6903V41.0928C131.602 40.7178 131.843 40.3878 132.195 40.2678C132.518 40.1553 132.826 40.0278 133.134 39.8778C133.471 39.7128 133.869 39.7803 134.139 40.0428L135.273 41.1753C135.61 41.5128 136.166 41.5128 136.511 41.1753L138.56 39.1278C138.898 38.7903 138.898 38.2353 138.56 37.8903L137.427 36.7578C137.164 36.4953 137.097 36.0903 137.262 35.7528C137.412 35.4453 137.539 35.1303 137.652 34.8153C137.772 34.4628 138.102 34.2228 138.478 34.2228H140.076C140.557 34.2228 140.947 33.8328 140.947 33.3528ZM133.374 34.2228C133.171 34.5828 132.916 34.9203 132.608 35.2278C132.3 35.5353 131.963 35.7903 131.602 35.9928C131.265 36.1878 130.904 36.3378 130.529 36.4353C129.711 36.6603 128.848 36.6603 128.03 36.4353C127.662 36.3378 127.302 36.1878 126.956 35.9928C126.596 35.7903 126.258 35.5353 125.951 35.2278C125.643 34.9203 125.388 34.5828 125.185 34.2228C124.99 33.8853 124.847 33.5253 124.742 33.1578C124.517 32.3403 124.517 31.4778 124.742 30.6603C124.847 30.2928 124.99 29.9328 125.185 29.5953C125.388 29.2353 125.643 28.8978 125.951 28.5903C126.258 28.2828 126.596 28.0278 126.956 27.8253C127.294 27.6303 127.654 27.4878 128.022 27.3828C128.84 27.1578 129.704 27.1578 130.522 27.3828C130.889 27.4878 131.25 27.6303 131.587 27.8253C131.948 28.0278 132.285 28.2828 132.593 28.5903C132.901 28.8978 133.156 29.2353 133.359 29.5953C133.554 29.9328 133.697 30.2928 133.802 30.6603C134.027 31.4778 134.027 32.3403 133.802 33.1578C133.704 33.5253 133.554 33.8853 133.359 34.2303L133.374 34.2228Z" fill="#C8D9F0"/>
</g>
<g filter="url(#filter7_d_282_203)">
<path d="M258.756 147.607V144.719C258.756 144.239 258.365 143.849 257.885 143.849H256.286C255.911 143.849 255.581 143.609 255.461 143.257C255.348 142.934 255.22 142.627 255.07 142.319C254.905 141.982 254.973 141.584 255.235 141.314L256.369 140.182C256.707 139.844 256.707 139.289 256.369 138.944L254.32 136.897C253.982 136.559 253.427 136.559 253.081 136.897L251.948 138.029C251.685 138.292 251.28 138.359 250.942 138.194C250.634 138.044 250.319 137.917 250.004 137.804C249.651 137.684 249.411 137.354 249.411 136.979V135.382C249.411 134.902 249.021 134.512 248.54 134.512H245.651C245.17 134.512 244.78 134.902 244.78 135.382V136.979C244.78 137.354 244.54 137.684 244.187 137.804C243.864 137.917 243.557 138.044 243.249 138.194C242.911 138.359 242.513 138.292 242.243 138.029L241.11 136.897C240.772 136.559 240.217 136.559 239.871 136.897L237.822 138.944C237.485 139.282 237.485 139.837 237.822 140.182L238.956 141.314C239.218 141.577 239.286 141.982 239.121 142.319C238.971 142.627 238.843 142.942 238.731 143.257C238.61 143.609 238.28 143.849 237.905 143.849H236.306C235.826 143.849 235.436 144.239 235.436 144.719V147.607C235.436 148.087 235.826 148.477 236.306 148.477H237.905C238.28 148.477 238.61 148.717 238.731 149.069C238.843 149.392 238.971 149.699 239.121 150.007C239.286 150.344 239.218 150.742 238.956 151.012L237.822 152.144C237.485 152.482 237.485 153.037 237.822 153.382L239.871 155.429C240.209 155.767 240.765 155.767 241.11 155.429L242.243 154.297C242.506 154.034 242.911 153.967 243.249 154.132C243.557 154.282 243.872 154.409 244.187 154.522C244.54 154.642 244.78 154.972 244.78 155.347V156.944C244.78 157.424 245.17 157.814 245.651 157.814H248.54C249.021 157.814 249.411 157.424 249.411 156.944V155.347C249.411 154.972 249.651 154.642 250.004 154.522C250.327 154.409 250.634 154.282 250.942 154.132C251.28 153.967 251.678 154.034 251.948 154.297L253.081 155.429C253.419 155.767 253.974 155.767 254.32 155.429L256.369 153.382C256.707 153.044 256.707 152.489 256.369 152.144L255.235 151.012C254.973 150.749 254.905 150.344 255.07 150.007C255.22 149.699 255.348 149.384 255.461 149.069C255.581 148.717 255.911 148.477 256.286 148.477H257.885C258.365 148.477 258.756 148.087 258.756 147.607ZM251.182 148.477C250.98 148.837 250.725 149.174 250.417 149.482C250.109 149.789 249.771 150.044 249.411 150.247C249.073 150.442 248.713 150.592 248.338 150.689C247.52 150.914 246.656 150.914 245.838 150.689C245.471 150.592 245.11 150.442 244.765 150.247C244.405 150.044 244.067 149.789 243.759 149.482C243.452 149.174 243.196 148.837 242.994 148.477C242.799 148.139 242.656 147.779 242.551 147.412C242.326 146.594 242.326 145.732 242.551 144.914C242.656 144.547 242.799 144.187 242.994 143.849C243.196 143.489 243.452 143.152 243.759 142.844C244.067 142.537 244.405 142.282 244.765 142.079C245.103 141.884 245.463 141.742 245.831 141.637C246.649 141.412 247.512 141.412 248.33 141.637C248.698 141.742 249.058 141.884 249.396 142.079C249.756 142.282 250.094 142.537 250.402 142.844C250.71 143.152 250.965 143.489 251.167 143.849C251.363 144.187 251.505 144.547 251.61 144.914C251.835 145.732 251.835 146.594 251.61 147.412C251.513 147.779 251.363 148.139 251.167 148.484L251.182 148.477Z" fill="#C8D9F0"/>
</g>
</g>
<defs>
<filter id="filter0_d_282_203" x="35.5508" y="14.5723" width="81.541" height="68.2051" filterUnits="userSpaceOnUse" color-interpolation-filters="sRGB">
<feFlood flood-opacity="0" result="BackgroundImageFix"/>
<feColorMatrix in="SourceAlpha" type="matrix" values="0 0 0 0 0 0 0 0 0 0 0 0 0 0 0 0 0 0 127 0" result="hardAlpha"/>
<feOffset dy="-2"/>
<feGaussianBlur stdDeviation="4"/>
<feComposite in2="hardAlpha" operator="out"/>
<feColorMatrix type="matrix" values="0 0 0 0 0 0 0 0 0 0 0 0 0 0 0 0 0 0 0.25 0"/>
<feBlend mode="normal" in2="BackgroundImageFix" result="effect1_dropShadow_282_203"/>
<feBlend mode="normal" in="SourceGraphic" in2="effect1_dropShadow_282_203" result="shape"/>
</filter>
<filter id="filter1_d_282_203" x="5.38379" y="18.4795" width="108.146" height="112.636" filterUnits="userSpaceOnUse" color-interpolation-filters="sRGB">
<feFlood flood-opacity="0" result="BackgroundImageFix"/>
<feColorMatrix in="SourceAlpha" type="matrix" values="0 0 0 0 0 0 0 0 0 0 0 0 0 0 0 0 0 0 127 0" result="hardAlpha"/>
<feOffset dy="2"/>
<feGaussianBlur stdDeviation="1.5"/>
<feComposite in2="hardAlpha" operator="out"/>
<feColorMatrix type="matrix" values="0 0 0 0 0 0 0 0 0 0 0 0 0 0 0 0 0 0 0.25 0"/>
<feBlend mode="normal" in2="BackgroundImageFix" result="effect1_dropShadow_282_203"/>
<feBlend mode="normal" in="SourceGraphic" in2="effect1_dropShadow_282_203" result="shape"/>
</filter>
<filter id="filter2_d_282_203" x="257.292" y="88.4297" width="45.7627" height="34.4072" filterUnits="userSpaceOnUse" color-interpolation-filters="sRGB">
<feFlood flood-opacity="0" result="BackgroundImageFix"/>
<feColorMatrix in="SourceAlpha" type="matrix" values="0 0 0 0 0 0 0 0 0 0 0 0 0 0 0 0 0 0 127 0" result="hardAlpha"/>
<feOffset dy="4"/>
<feGaussianBlur stdDeviation="4.5"/>
<feComposite in2="hardAlpha" operator="out"/>
<feColorMatrix type="matrix" values="0 0 0 0 0 0 0 0 0 0 0 0 0 0 0 0 0 0 0.25 0"/>
<feBlend mode="normal" in2="BackgroundImageFix" result="effect1_dropShadow_282_203"/>
<feBlend mode="normal" in="SourceGraphic" in2="effect1_dropShadow_282_203" result="shape"/>
</filter>
<filter id="filter3_d_282_203" x="249.573" y="78.876" width="56.7119" height="37.4736" filterUnits="userSpaceOnUse" color-interpolation-filters="sRGB">
<feFlood flood-opacity="0" result="BackgroundImageFix"/>
<feColorMatrix in="SourceAlpha" type="matrix" values="0 0 0 0 0 0 0 0 0 0 0 0 0 0 0 0 0 0 127 0" result="hardAlpha"/>
<feOffset dy="4"/>
<feGaussianBlur stdDeviation="4.5"/>
<feComposite in2="hardAlpha" operator="out"/>
<feColorMatrix type="matrix" values="0 0 0 0 0 0 0 0 0 0 0 0 0 0 0 0 0 0 0.25 0"/>
<feBlend mode="normal" in2="BackgroundImageFix" result="effect1_dropShadow_282_203"/>
<feBlend mode="normal" in="SourceGraphic" in2="effect1_dropShadow_282_203" result="shape"/>
</filter>
<filter id="filter4_d_282_203" x="211.641" y="-4.58008" width="105.1" height="111.908" filterUnits="userSpaceOnUse" color-interpolation-filters="sRGB">
<feFlood flood-opacity="0" result="BackgroundImageFix"/>
<feColorMatrix in="SourceAlpha" type="matrix" values="0 0 0 0 0 0 0 0 0 0 0 0 0 0 0 0 0 0 127 0" result="hardAlpha"/>
<feOffset dy="4"/>
<feGaussianBlur stdDeviation="7.5"/>
<feComposite in2="hardAlpha" operator="out"/>
<feColorMatrix type="matrix" values="0 0 0 0 0 0 0 0 0 0 0 0 0 0 0 0 0 0 0.25 0"/>
<feBlend mode="normal" in2="BackgroundImageFix" result="effect1_dropShadow_282_203"/>
<feBlend mode="normal" in="SourceGraphic" in2="effect1_dropShadow_282_203" result="shape"/>
</filter>
<filter id="filter5_d_282_203" x="246.686" y="68.2305" width="56.7119" height="37.4736" filterUnits="userSpaceOnUse" color-interpolation-filters="sRGB">
<feFlood flood-opacity="0" result="BackgroundImageFix"/>
<feColorMatrix in="SourceAlpha" type="matrix" values="0 0 0 0 0 0 0 0 0 0 0 0 0 0 0 0 0 0 127 0" result="hardAlpha"/>
<feOffset dy="4"/>
<feGaussianBlur stdDeviation="4.5"/>
<feComposite in2="hardAlpha" operator="out"/>
<feColorMatrix type="matrix" values="0 0 0 0 0 0 0 0 0 0 0 0 0 0 0 0 0 0 0.25 0"/>
<feBlend mode="normal" in2="BackgroundImageFix" result="effect1_dropShadow_282_203"/>
<feBlend mode="normal" in="SourceGraphic" in2="effect1_dropShadow_282_203" result="shape"/>
</filter>
<filter id="filter6_d_282_203" x="105.627" y="9.25781" width="47.3203" height="47.3027" filterUnits="userSpaceOnUse" color-interpolation-filters="sRGB">
<feFlood flood-opacity="0" result="BackgroundImageFix"/>
<feColorMatrix in="SourceAlpha" type="matrix" values="0 0 0 0 0 0 0 0 0 0 0 0 0 0 0 0 0 0 127 0" result="hardAlpha"/>
<feOffset dy="1"/>
<feGaussianBlur stdDeviation="6"/>
<feComposite in2="hardAlpha" operator="out"/>
<feColorMatrix type="matrix" values="0 0 0 0 0 0 0 0 0 0 0 0 0 0 0 0 0 0 0.11 0"/>
<feBlend mode="normal" in2="BackgroundImageFix" result="effect1_dropShadow_282_203"/>
<feBlend mode="normal" in="SourceGraphic" in2="effect1_dropShadow_282_203" result="shape"/>
</filter>
<filter id="filter7_d_282_203" x="223.436" y="123.512" width="47.3203" height="47.3027" filterUnits="userSpaceOnUse" color-interpolation-filters="sRGB">
<feFlood flood-opacity="0" result="BackgroundImageFix"/>
<feColorMatrix in="SourceAlpha" type="matrix" values="0 0 0 0 0 0 0 0 0 0 0 0 0 0 0 0 0 0 127 0" result="hardAlpha"/>
<feOffset dy="1"/>
<feGaussianBlur stdDeviation="6"/>
<feComposite in2="hardAlpha" operator="out"/>
<feColorMatrix type="matrix" values="0 0 0 0 0 0 0 0 0 0 0 0 0 0 0 0 0 0 0.11 0"/>
<feBlend mode="normal" in2="BackgroundImageFix" result="effect1_dropShadow_282_203"/>
<feBlend mode="normal" in="SourceGraphic" in2="effect1_dropShadow_282_203" result="shape"/>
</filter>
<linearGradient id="paint0_linear_282_203" x1="130.957" y1="142.54" x2="227.413" y2="142.54" gradientUnits="userSpaceOnUse">
<stop stop-color="#F7A299"/>
<stop offset="1" stop-color="#D8566E"/>
</linearGradient>
<linearGradient id="paint1_linear_282_203" x1="199.033" y1="81.4773" x2="221.485" y2="81.4773" gradientUnits="userSpaceOnUse">
<stop stop-color="#FBCFC5"/>
<stop offset="1" stop-color="#F9AB93"/>
</linearGradient>
<linearGradient id="paint2_linear_282_203" x1="150.967" y1="139.666" x2="172.846" y2="139.666" gradientUnits="userSpaceOnUse">
<stop stop-color="#E4C2BA"/>
<stop offset="1" stop-color="#F9AB93"/>
</linearGradient>
<linearGradient id="paint3_linear_282_203" x1="131.617" y1="109.567" x2="190.852" y2="109.567" gradientUnits="userSpaceOnUse">
<stop stop-color="#FBCFC5"/>
<stop offset="1" stop-color="#F9AB93"/>
</linearGradient>
<linearGradient id="paint4_linear_282_203" x1="158.525" y1="0" x2="158.525" y2="236.91" gradientUnits="userSpaceOnUse">
<stop stop-color="#7B91E2"/>
<stop offset="0.927083" stop-color="#5670C9"/>
</linearGradient>
<linearGradient id="paint5_linear_282_203" x1="154.131" y1="125.601" x2="163.964" y2="128.34" gradientUnits="userSpaceOnUse">
<stop stop-color="#F7A299"/>
<stop offset="1" stop-color="#D8566E"/>
</linearGradient>
<linearGradient id="paint6_linear_282_203" x1="125.456" y1="183.587" x2="152.27" y2="183.587" gradientUnits="userSpaceOnUse">
<stop stop-color="#FBCFC5"/>
<stop offset="1" stop-color="#F9AB93"/>
</linearGradient>
<linearGradient id="paint7_linear_282_203" x1="99.8535" y1="162.492" x2="145.652" y2="162.492" gradientUnits="userSpaceOnUse">
<stop stop-color="#F7A299"/>
<stop offset="1" stop-color="#D8566E"/>
</linearGradient>
<linearGradient id="paint8_linear_282_203" x1="8.38379" y1="72.7975" x2="110.529" y2="72.7975" gradientUnits="userSpaceOnUse">
<stop stop-color="#F7A299"/>
<stop offset="1" stop-color="#D8566E"/>
</linearGradient>
<linearGradient id="paint9_linear_282_203" x1="266.818" y1="105.375" x2="293.526" y2="97.8825" gradientUnits="userSpaceOnUse">
<stop stop-color="#5E7AC1"/>
<stop offset="1" stop-color="#3B509A"/>
</linearGradient>
<linearGradient id="paint10_linear_282_203" x1="276.394" y1="88.1423" x2="279.46" y2="99.0842" gradientUnits="userSpaceOnUse">
<stop stop-color="#7B91E2"/>
<stop offset="0.927083" stop-color="#5670C9"/>
</linearGradient>
<linearGradient id="paint11_linear_282_203" x1="256.212" y1="88.2425" x2="293.868" y2="77.6783" gradientUnits="userSpaceOnUse">
<stop stop-color="#5E7AC1"/>
<stop offset="1" stop-color="#3B509A"/>
</linearGradient>
<clipPath id="clip0_282_203">
<rect width="310.733" height="237" fill="white" transform="translate(0.133789)"/>
</clipPath>
</defs>
</svg>
