<svg width="37" height="36" viewBox="0 0 37 36" fill="none" xmlns="http://www.w3.org/2000/svg">
<path d="M36.9814 11.9421L35.4298 20.8436C35.2385 21.8269 34.455 22.4248 33.5515 22.436H10.9304L10.4813 24.9676H32.0408C33.176 25.0539 33.946 25.858 33.9599 26.8866C33.8773 28.0196 33.0732 28.7917 32.0408 28.8058H8.19466C6.905 28.6898 6.13598 27.6618 6.27554 26.5192L7.29633 20.966L5.74471 5.368L1.33483 3.97979C0.257178 3.55192 -0.18266 2.57703 0.0690326 1.57069C0.487533 0.521897 1.49033 0.0427166 2.47813 0.304892L8.11299 2.10152C8.8721 2.38608 9.3088 3.00746 9.41961 3.73482L9.74626 6.83808L35.3073 9.69633C36.4817 9.95073 37.1193 10.881 36.9814 11.9421ZM14.0375 32.8354C14.0375 34.4534 12.7259 35.765 11.1078 35.765C9.48979 35.765 8.17814 34.4534 8.17814 32.8354C8.17814 31.2173 9.48982 29.9056 11.1078 29.9056C12.7259 29.9056 14.0375 31.2173 14.0375 32.8354ZM31.5278 32.8354C31.5278 34.4534 30.2161 35.765 28.5981 35.765C26.98 35.765 25.6684 34.4534 25.6684 32.8354C25.6684 31.2173 26.98 29.9056 28.5981 29.9056C30.2161 29.9056 31.5278 31.2173 31.5278 32.8354Z" fill="white"/>
</svg>
