<svg width="583" height="505" viewBox="0 0 583 505" fill="none" xmlns="http://www.w3.org/2000/svg">
<path d="M353.842 479.947H16.1123V133.627C16.1123 59.9446 76.0915 0 149.816 0H220.138C293.863 0 353.842 59.9446 353.842 133.627V479.947Z" fill="url(#paint0_linear_372_1582)"/>
<path d="M283.52 479.947H16.1118V133.627C16.038 105.394 24.9834 77.8741 41.6457 55.0746C42.26 54.2379 42.8726 53.412 43.5044 52.5952C51.5639 42.0309 61.1549 32.727 71.9609 24.9908C72.5713 24.5469 73.1841 24.1107 73.806 23.6745C82.8481 17.4208 92.6293 12.3085 102.927 8.45402C103.538 8.22238 104.161 7.99028 104.784 7.76767C114.097 4.44602 123.751 2.17071 133.568 0.983749C134.176 0.90066 134.801 0.835641 135.426 0.770622C144.993 -0.251666 154.641 -0.251666 164.207 0.770622C164.831 0.835641 165.455 0.900651 166.071 0.984638C175.885 2.17168 185.537 4.44671 194.848 7.76771C195.471 7.99033 196.093 8.22241 196.707 8.4545C206.877 12.2604 216.543 17.2964 225.489 23.4501C226.11 23.8769 226.733 24.313 227.345 24.7492C233.402 29.0704 239.092 33.8844 244.356 39.1421C248.577 43.3593 252.51 47.8547 256.129 52.598C256.759 53.4121 257.372 54.238 257.985 55.0733C274.648 77.873 283.594 105.393 283.52 133.627V479.947Z" fill="url(#paint1_linear_372_1582)"/>
<path d="M261.776 325.051C269.953 325.051 276.581 318.427 276.581 310.255C276.581 302.083 269.953 295.459 261.776 295.459C253.6 295.459 246.972 302.083 246.972 310.255C246.972 318.427 253.6 325.051 261.776 325.051Z" fill="#FFE7AB"/>
<path d="M326.175 469.574H314.831L309.434 425.845L326.177 425.846L326.175 469.574Z" fill="url(#paint2_linear_372_1582)"/>
<path d="M306.728 466.335H328.605V480.102H292.953C292.953 478.294 293.309 476.504 294.002 474.833C294.694 473.163 295.709 471.645 296.988 470.367C298.267 469.089 299.785 468.075 301.456 467.383C303.128 466.691 304.919 466.335 306.728 466.335Z" fill="#444444"/>
<path d="M382.617 469.574H371.273L365.876 425.845L382.619 425.846L382.617 469.574Z" fill="url(#paint3_linear_372_1582)"/>
<path d="M363.17 466.335H385.047V480.102H349.396C349.396 478.294 349.752 476.504 350.444 474.833C351.136 473.163 352.151 471.645 353.43 470.367C354.709 469.089 356.228 468.075 357.899 467.383C359.57 466.691 361.361 466.335 363.17 466.335Z" fill="#444444"/>
<path d="M269.268 313.186C268.452 311.984 267.91 310.618 267.679 309.184C267.448 307.75 267.535 306.283 267.933 304.887C268.331 303.49 269.03 302.197 269.982 301.1C270.934 300.002 272.115 299.127 273.442 298.535L312.004 192.312L330.979 202.661L286.949 304.172C287.796 306.466 287.772 308.99 286.881 311.268C285.99 313.545 284.294 315.416 282.115 316.528C279.935 317.639 277.424 317.912 275.056 317.296C272.688 316.68 270.629 315.218 269.268 313.186Z" fill="url(#paint4_linear_372_1582)"/>
<path d="M376.823 333.146C375.563 332.423 374.476 331.434 373.639 330.246C372.803 329.058 372.237 327.702 371.982 326.272C371.727 324.842 371.788 323.374 372.162 321.971C372.536 320.567 373.213 319.263 374.146 318.149L362.2 205.783L383.794 206.769L388.759 317.296C390.527 318.987 391.613 321.266 391.811 323.704C392.009 326.141 391.306 328.566 389.835 330.52C388.364 332.473 386.227 333.82 383.829 334.304C381.43 334.788 378.938 334.376 376.823 333.146Z" fill="url(#paint5_linear_372_1582)"/>
<path d="M360.828 250.43L358.974 207.946C357.568 199.96 362.142 192.41 369.177 191.176C376.214 189.946 383.086 195.485 384.498 203.53L391.469 243.228L360.828 250.43Z" fill="url(#paint6_linear_372_1582)"/>
<path d="M342.373 172.637C354.925 172.637 365.099 162.468 365.099 149.924C365.099 137.38 354.925 127.211 342.373 127.211C329.822 127.211 319.647 137.38 319.647 149.924C319.647 162.468 329.822 172.637 342.373 172.637Z" fill="url(#paint7_linear_372_1582)"/>
<path d="M376.678 307.591H308.163L308.246 307.058C308.369 306.261 320.456 227.123 311.541 201.233C310.647 198.688 310.725 195.903 311.762 193.414C312.799 190.924 314.72 188.905 317.157 187.747H317.157C329.9 181.749 354.361 174.364 375.006 192.286C378.044 194.967 380.417 198.317 381.936 202.072C383.455 205.827 384.079 209.884 383.759 213.922L376.678 307.591Z" fill="url(#paint8_linear_372_1582)"/>
<path d="M321.323 238.819L290.477 232.564L304.935 198.321C305.801 195.004 307.947 192.166 310.903 190.429C313.859 188.691 317.385 188.197 320.705 189.054C324.026 189.91 326.871 192.048 328.616 194.999C330.362 197.949 330.865 201.471 330.016 204.792L321.323 238.819Z" fill="url(#paint9_linear_372_1582)"/>
<path d="M374.399 302.504C385.423 344.466 386.626 397.818 383.652 456.013L368.847 454.163L342.014 343.193L327.209 456.013L310.554 455.088C305.578 394.027 300.734 341.607 308.703 307.128L374.399 302.504Z" fill="url(#paint10_linear_372_1582)"/>
<path d="M357.348 167.477C353.108 171.99 345.235 169.567 344.682 163.401C344.639 162.923 344.642 162.441 344.692 161.963C344.977 159.231 346.556 156.752 346.178 153.868C346.092 153.15 345.824 152.466 345.4 151.881C342.022 147.359 334.091 153.903 330.903 149.81C328.947 147.3 331.246 143.348 329.745 140.543C327.765 136.841 321.9 138.667 318.222 136.64C314.13 134.384 314.374 128.109 317.068 124.292C320.354 119.637 326.114 117.153 331.802 116.795C337.49 116.437 343.139 117.974 348.45 120.042C354.484 122.392 360.467 125.64 364.181 130.943C368.696 137.391 369.131 146.061 366.872 153.601C365.499 158.188 360.81 163.791 357.348 167.477Z" fill="#2F2E41"/>
<path d="M209.96 379.612H89.6726C88.0884 379.62 86.5656 379 85.438 377.888C84.3105 376.776 83.6705 375.262 83.6582 373.679V105.344C83.6705 103.761 84.3105 102.247 85.438 101.135C86.5656 100.022 88.0884 99.4027 89.6726 99.4112H209.96C211.544 99.4027 213.067 100.022 214.194 101.135C215.322 102.247 215.962 103.761 215.974 105.344V373.679C215.962 375.262 215.322 376.776 214.194 377.888C213.067 379 211.544 379.62 209.96 379.612Z" fill="white"/>
<path d="M215.974 186.235H83.6582V188.085H215.974V186.235Z" fill="#CCCCCC"/>
<path d="M216.437 291.76H84.1211V293.609H216.437V291.76Z" fill="#CCCCCC"/>
<path d="M127.146 99.4111H125.296V380.536H127.146V99.4111Z" fill="#CCCCCC"/>
<path d="M173.411 99.4111H171.561V380.536H173.411V99.4111Z" fill="#CCCCCC"/>
<rect y="480" width="549" height="25" rx="12.5" fill="#B4CBF0"/>
<g filter="url(#filter0_d_372_1582)">
<path d="M313.5 88C333.658 88 350 71.4345 350 51C350 30.5655 333.658 14 313.5 14C293.342 14 277 30.5655 277 51C277 71.4345 293.342 88 313.5 88Z" fill="#FFDAC1"/>
</g>
<g filter="url(#filter1_d_372_1582)">
<path d="M443.5 160C455.374 160 465 150.374 465 138.5C465 126.626 455.374 117 443.5 117C431.626 117 422 126.626 422 138.5C422 150.374 431.626 160 443.5 160Z" fill="#C8D9F0"/>
</g>
<g filter="url(#filter2_d_372_1582)">
<path d="M283.5 448C290.956 448 297 441.956 297 434.5C297 427.044 290.956 421 283.5 421C276.044 421 270 427.044 270 434.5C270 441.956 276.044 448 283.5 448Z" fill="#C8D9F0"/>
</g>
<g filter="url(#filter3_d_372_1582)">
<path d="M305 377C307.209 377 309 375.209 309 373C309 370.791 307.209 369 305 369C302.791 369 301 370.791 301 373C301 375.209 302.791 377 305 377Z" fill="#FFDAC1"/>
</g>
<g filter="url(#filter4_d_372_1582)">
<path d="M429.5 365C433.642 365 437 361.642 437 357.5C437 353.358 433.642 350 429.5 350C425.358 350 422 353.358 422 357.5C422 361.642 425.358 365 429.5 365Z" fill="#FF9AA2"/>
</g>
<g filter="url(#filter5_d_372_1582)">
<path d="M410.5 255C413.538 255 416 252.538 416 249.5C416 246.462 413.538 244 410.5 244C407.462 244 405 246.462 405 249.5C405 252.538 407.462 255 410.5 255Z" fill="#FFE7AB"/>
</g>
<defs>
<filter id="filter0_d_372_1582" x="268" y="9" width="91" height="92" filterUnits="userSpaceOnUse" color-interpolation-filters="sRGB">
<feFlood flood-opacity="0" result="BackgroundImageFix"/>
<feColorMatrix in="SourceAlpha" type="matrix" values="0 0 0 0 0 0 0 0 0 0 0 0 0 0 0 0 0 0 127 0" result="hardAlpha"/>
<feOffset dy="4"/>
<feGaussianBlur stdDeviation="4.5"/>
<feComposite in2="hardAlpha" operator="out"/>
<feColorMatrix type="matrix" values="0 0 0 0 0 0 0 0 0 0 0 0 0 0 0 0 0 0 0.25 0"/>
<feBlend mode="normal" in2="BackgroundImageFix" result="effect1_dropShadow_372_1582"/>
<feBlend mode="normal" in="SourceGraphic" in2="effect1_dropShadow_372_1582" result="shape"/>
</filter>
<filter id="filter1_d_372_1582" x="413" y="112" width="61" height="61" filterUnits="userSpaceOnUse" color-interpolation-filters="sRGB">
<feFlood flood-opacity="0" result="BackgroundImageFix"/>
<feColorMatrix in="SourceAlpha" type="matrix" values="0 0 0 0 0 0 0 0 0 0 0 0 0 0 0 0 0 0 127 0" result="hardAlpha"/>
<feOffset dy="4"/>
<feGaussianBlur stdDeviation="4.5"/>
<feComposite in2="hardAlpha" operator="out"/>
<feColorMatrix type="matrix" values="0 0 0 0 0 0 0 0 0 0 0 0 0 0 0 0 0 0 0.25 0"/>
<feBlend mode="normal" in2="BackgroundImageFix" result="effect1_dropShadow_372_1582"/>
<feBlend mode="normal" in="SourceGraphic" in2="effect1_dropShadow_372_1582" result="shape"/>
</filter>
<filter id="filter2_d_372_1582" x="261" y="416" width="45" height="45" filterUnits="userSpaceOnUse" color-interpolation-filters="sRGB">
<feFlood flood-opacity="0" result="BackgroundImageFix"/>
<feColorMatrix in="SourceAlpha" type="matrix" values="0 0 0 0 0 0 0 0 0 0 0 0 0 0 0 0 0 0 127 0" result="hardAlpha"/>
<feOffset dy="4"/>
<feGaussianBlur stdDeviation="4.5"/>
<feComposite in2="hardAlpha" operator="out"/>
<feColorMatrix type="matrix" values="0 0 0 0 0 0 0 0 0 0 0 0 0 0 0 0 0 0 0.25 0"/>
<feBlend mode="normal" in2="BackgroundImageFix" result="effect1_dropShadow_372_1582"/>
<feBlend mode="normal" in="SourceGraphic" in2="effect1_dropShadow_372_1582" result="shape"/>
</filter>
<filter id="filter3_d_372_1582" x="292" y="364" width="26" height="26" filterUnits="userSpaceOnUse" color-interpolation-filters="sRGB">
<feFlood flood-opacity="0" result="BackgroundImageFix"/>
<feColorMatrix in="SourceAlpha" type="matrix" values="0 0 0 0 0 0 0 0 0 0 0 0 0 0 0 0 0 0 127 0" result="hardAlpha"/>
<feOffset dy="4"/>
<feGaussianBlur stdDeviation="4.5"/>
<feComposite in2="hardAlpha" operator="out"/>
<feColorMatrix type="matrix" values="0 0 0 0 0 0 0 0 0 0 0 0 0 0 0 0 0 0 0.25 0"/>
<feBlend mode="normal" in2="BackgroundImageFix" result="effect1_dropShadow_372_1582"/>
<feBlend mode="normal" in="SourceGraphic" in2="effect1_dropShadow_372_1582" result="shape"/>
</filter>
<filter id="filter4_d_372_1582" x="413" y="345" width="33" height="33" filterUnits="userSpaceOnUse" color-interpolation-filters="sRGB">
<feFlood flood-opacity="0" result="BackgroundImageFix"/>
<feColorMatrix in="SourceAlpha" type="matrix" values="0 0 0 0 0 0 0 0 0 0 0 0 0 0 0 0 0 0 127 0" result="hardAlpha"/>
<feOffset dy="4"/>
<feGaussianBlur stdDeviation="4.5"/>
<feComposite in2="hardAlpha" operator="out"/>
<feColorMatrix type="matrix" values="0 0 0 0 0 0 0 0 0 0 0 0 0 0 0 0 0 0 0.25 0"/>
<feBlend mode="normal" in2="BackgroundImageFix" result="effect1_dropShadow_372_1582"/>
<feBlend mode="normal" in="SourceGraphic" in2="effect1_dropShadow_372_1582" result="shape"/>
</filter>
<filter id="filter5_d_372_1582" x="396" y="239" width="29" height="29" filterUnits="userSpaceOnUse" color-interpolation-filters="sRGB">
<feFlood flood-opacity="0" result="BackgroundImageFix"/>
<feColorMatrix in="SourceAlpha" type="matrix" values="0 0 0 0 0 0 0 0 0 0 0 0 0 0 0 0 0 0 127 0" result="hardAlpha"/>
<feOffset dy="4"/>
<feGaussianBlur stdDeviation="4.5"/>
<feComposite in2="hardAlpha" operator="out"/>
<feColorMatrix type="matrix" values="0 0 0 0 0 0 0 0 0 0 0 0 0 0 0 0 0 0 0.25 0"/>
<feBlend mode="normal" in2="BackgroundImageFix" result="effect1_dropShadow_372_1582"/>
<feBlend mode="normal" in="SourceGraphic" in2="effect1_dropShadow_372_1582" result="shape"/>
</filter>
<linearGradient id="paint0_linear_372_1582" x1="184.977" y1="0" x2="184.977" y2="479.947" gradientUnits="userSpaceOnUse">
<stop stop-color="#DDE4F3"/>
<stop offset="1" stop-color="white"/>
</linearGradient>
<linearGradient id="paint1_linear_372_1582" x1="16.1113" y1="240.005" x2="283.52" y2="240.005" gradientUnits="userSpaceOnUse">
<stop stop-color="#5E7AC1"/>
<stop offset="1" stop-color="#3B509A"/>
</linearGradient>
<linearGradient id="paint2_linear_372_1582" x1="309.434" y1="447.714" x2="326.177" y2="447.714" gradientUnits="userSpaceOnUse">
<stop stop-color="#FBCFC5"/>
<stop offset="1" stop-color="#F9AB93"/>
</linearGradient>
<linearGradient id="paint3_linear_372_1582" x1="365.876" y1="447.714" x2="382.619" y2="447.714" gradientUnits="userSpaceOnUse">
<stop stop-color="#FBCFC5"/>
<stop offset="1" stop-color="#F9AB93"/>
</linearGradient>
<linearGradient id="paint4_linear_372_1582" x1="267.553" y1="254.977" x2="330.979" y2="254.977" gradientUnits="userSpaceOnUse">
<stop stop-color="#FBCFC5"/>
<stop offset="1" stop-color="#F9AB93"/>
</linearGradient>
<linearGradient id="paint5_linear_372_1582" x1="362.2" y1="270.154" x2="391.844" y2="270.154" gradientUnits="userSpaceOnUse">
<stop stop-color="#FBCFC5"/>
<stop offset="1" stop-color="#F9AB93"/>
</linearGradient>
<linearGradient id="paint6_linear_372_1582" x1="358.72" y1="220.718" x2="391.469" y2="220.718" gradientUnits="userSpaceOnUse">
<stop stop-color="#F7A299"/>
<stop offset="1" stop-color="#D8566E"/>
</linearGradient>
<linearGradient id="paint7_linear_372_1582" x1="319.647" y1="149.928" x2="365.1" y2="149.928" gradientUnits="userSpaceOnUse">
<stop stop-color="#FBCFC5"/>
<stop offset="1" stop-color="#F9AB93"/>
</linearGradient>
<linearGradient id="paint8_linear_372_1582" x1="308.163" y1="244.303" x2="383.841" y2="244.303" gradientUnits="userSpaceOnUse">
<stop stop-color="#F7A299"/>
<stop offset="1" stop-color="#D8566E"/>
</linearGradient>
<linearGradient id="paint9_linear_372_1582" x1="290.477" y1="213.731" x2="330.419" y2="213.731" gradientUnits="userSpaceOnUse">
<stop stop-color="#F7A299"/>
<stop offset="1" stop-color="#D8566E"/>
</linearGradient>
<linearGradient id="paint10_linear_372_1582" x1="344.761" y1="302.504" x2="344.761" y2="456.013" gradientUnits="userSpaceOnUse">
<stop stop-color="#7B91E2"/>
<stop offset="0.927083" stop-color="#5670C9"/>
</linearGradient>
</defs>
</svg>
