<svg width="54" height="70" viewBox="0 0 54 70" fill="none" xmlns="http://www.w3.org/2000/svg">
<g clip-path="url(#clip0_403_426)">
<path d="M32.1329 6.19043H21.8812C20.4987 6.19043 19.3779 7.3074 19.3779 8.68524V24.8817C19.3779 26.2596 20.4987 27.3766 21.8812 27.3766H32.1329C33.5154 27.3766 34.6362 26.2596 34.6362 24.8817V8.68524C34.6362 7.3074 33.5154 6.19043 32.1329 6.19043Z" fill="url(#paint0_linear_403_426)"/>
<path d="M38.6618 0H15.3373C13.2013 0 11.4697 1.72568 11.4697 3.85442V5.88723C11.4697 8.01597 13.2013 9.74166 15.3373 9.74166H38.6618C40.7978 9.74166 42.5293 8.01597 42.5293 5.88723V3.85442C42.5293 1.72568 40.7978 0 38.6618 0Z" fill="url(#paint1_linear_403_426)"/>
<path d="M48.967 28.7759V50.7276C48.967 57.1692 45.7882 62.8716 40.914 66.3697C37.7484 68.6533 33.8411 69.9997 29.6425 69.9997H24.3577C20.1193 69.9997 16.1988 68.6269 13.02 66.3301C13.02 66.3169 13.0067 66.3169 13.0067 66.3169C8.17228 62.8189 5.0332 57.1428 5.0332 50.7276V28.7759C5.0332 20.3674 11.8809 13.543 20.318 13.543H33.6822C42.1193 13.543 48.967 20.3674 48.967 28.7759Z" fill="url(#paint2_linear_403_426)"/>
<path d="M21.642 20.8301H32.344C37.1122 20.8301 40.9798 24.6845 40.9798 29.4365C40.9798 31.9181 38.9533 33.9246 36.4765 33.9246H17.5228C15.0328 33.9246 13.0195 31.9049 13.0195 29.4365C13.0195 24.6845 16.8871 20.8301 21.6553 20.8301H21.642Z" fill="#FEE8AB"/>
<path d="M10.0795 53.9354V60.7203C10.0795 61.8159 9.56291 62.8455 8.68874 63.5055C4.54305 66.6075 0 63.7299 0 59.7963V43.415C0 40.643 2.25166 38.3857 5.03311 38.3857V48.9194C5.03311 50.3978 6.23841 51.599 7.72185 51.599C9.01987 51.599 10.0795 52.655 10.0795 53.9486V53.9354Z" fill="url(#paint3_linear_403_426)"/>
<path d="M43.9209 53.9354V60.7203C43.9209 61.8159 44.4375 62.8455 45.3116 63.5055C49.4573 66.6075 54.0004 63.7299 54.0004 59.7963V43.415C54.0004 40.643 51.7487 38.3857 48.9673 38.3857V48.9194C48.9673 50.3978 47.762 51.599 46.2785 51.599C44.9805 51.599 43.9209 52.655 43.9209 53.9486V53.9354Z" fill="url(#paint4_linear_403_426)"/>
<path d="M40.9798 46.9921V65.0895C40.9798 65.5251 40.9533 65.9475 40.9136 66.3699C37.748 68.6535 33.8407 69.9999 29.642 69.9999H24.3573C20.1189 69.9999 16.1983 68.6271 13.0195 66.3303V46.1737C13.0195 42.9793 15.6156 40.3789 18.8209 40.3789H34.3573C38.0129 40.3789 40.9798 43.3357 40.9798 46.9921Z" fill="url(#paint5_linear_403_426)"/>
<path d="M20.1461 63.1756C21.8432 63.1756 23.2189 61.8045 23.2189 60.1132C23.2189 58.4219 21.8432 57.0508 20.1461 57.0508C18.449 57.0508 17.0732 58.4219 17.0732 60.1132C17.0732 61.8045 18.449 63.1756 20.1461 63.1756Z" fill="white"/>
<path d="M33.8551 63.1756C35.5522 63.1756 36.9279 61.8045 36.9279 60.1132C36.9279 58.4219 35.5522 57.0508 33.8551 57.0508C32.158 57.0508 30.7822 58.4219 30.7822 60.1132C30.7822 61.8045 32.158 63.1756 33.8551 63.1756Z" fill="white"/>
<path d="M20.1461 52.0877C21.8432 52.0877 23.2189 50.7166 23.2189 49.0253C23.2189 47.334 21.8432 45.9629 20.1461 45.9629C18.449 45.9629 17.0732 47.334 17.0732 49.0253C17.0732 50.7166 18.449 52.0877 20.1461 52.0877Z" fill="white"/>
<path d="M33.8551 52.0877C35.5522 52.0877 36.9279 50.7166 36.9279 49.0253C36.9279 47.334 35.5522 45.9629 33.8551 45.9629C32.158 45.9629 30.7822 47.334 30.7822 49.0253C30.7822 50.7166 32.158 52.0877 33.8551 52.0877Z" fill="white"/>
</g>
<defs>
<linearGradient id="paint0_linear_403_426" x1="19.3779" y1="16.7769" x2="34.6362" y2="16.7769" gradientUnits="userSpaceOnUse">
<stop stop-color="#F7A299"/>
<stop offset="1" stop-color="#D8566E"/>
</linearGradient>
<linearGradient id="paint1_linear_403_426" x1="11.4697" y1="4.87083" x2="42.5293" y2="4.87083" gradientUnits="userSpaceOnUse">
<stop stop-color="#F7A299"/>
<stop offset="1" stop-color="#D8566E"/>
</linearGradient>
<linearGradient id="paint2_linear_403_426" x1="5.0332" y1="41.7647" x2="48.967" y2="41.7647" gradientUnits="userSpaceOnUse">
<stop stop-color="#6992C4"/>
<stop offset="1" stop-color="#4E639E"/>
</linearGradient>
<linearGradient id="paint3_linear_403_426" x1="0" y1="51.5858" x2="10.0795" y2="51.5858" gradientUnits="userSpaceOnUse">
<stop stop-color="#A9BBE0"/>
<stop offset="1" stop-color="#CADAF0"/>
</linearGradient>
<linearGradient id="paint4_linear_403_426" x1="43.9209" y1="-7.69683e-05" x2="54.0004" y2="-7.69683e-05" gradientUnits="userSpaceOnUse">
<stop stop-color="#A9BBE0"/>
<stop offset="1" stop-color="#CADAF0"/>
</linearGradient>
<linearGradient id="paint5_linear_403_426" x1="13.0195" y1="55.1894" x2="40.9798" y2="55.1894" gradientUnits="userSpaceOnUse">
<stop stop-color="#B5CBE9"/>
<stop offset="1" stop-color="#7F8FC8"/>
</linearGradient>
<clipPath id="clip0_403_426">
<rect width="54" height="70" fill="white"/>
</clipPath>
</defs>
</svg>
