<svg width="851" height="630" viewBox="0 0 851 630" fill="none" xmlns="http://www.w3.org/2000/svg">
<path d="M153.955 154.66C196.644 154.66 231.25 120.038 231.25 77.3301C231.25 34.6219 196.644 0 153.955 0C111.266 0 76.6602 34.6219 76.6602 77.3301C76.6602 120.038 111.266 154.66 153.955 154.66Z" fill="#FFDAC1"/>
<g filter="url(#filter0_d_436_1173)">
<path d="M145.765 114.75C145.765 82.1652 172.18 55.75 204.765 55.75H724.56C757.145 55.75 783.56 82.1652 783.56 114.75V403.908C783.56 436.493 757.145 462.908 724.56 462.908H204.765C172.18 462.908 145.765 436.493 145.765 403.908V114.75Z" fill="white"/>
</g>
<path d="M460.882 263.604H376.594C374.163 263.604 372.192 265.573 372.192 268.002C372.192 270.431 374.163 272.4 376.594 272.4H460.882C463.313 272.4 465.284 270.431 465.284 268.002C465.284 265.573 463.313 263.604 460.882 263.604Z" fill="#EDEDF3"/>
<path d="M417.096 278.131H363.279C360.848 278.131 358.877 280.1 358.877 282.529C358.877 284.958 360.848 286.928 363.279 286.928H417.096C419.528 286.928 421.499 284.958 421.499 282.529C421.499 280.1 419.528 278.131 417.096 278.131Z" fill="#EDEDF3"/>
<path d="M447.567 249.074H363.279C360.848 249.074 358.877 251.043 358.877 253.473C358.877 255.902 360.848 257.871 363.279 257.871H447.567C449.998 257.871 451.969 255.902 451.969 253.473C451.969 251.043 449.998 249.074 447.567 249.074Z" fill="#EDEDF3"/>
<g clip-path="url(#clip0_436_1173)">
<g filter="url(#filter1_f_436_1173)">
<path d="M747.17 435.033V541.48C747.17 567.041 717.509 585.74 690.364 565.583C688.717 564.382 687.242 562.924 686.028 561.38C679.003 570.043 670.764 577.763 661.571 584.282C640.844 599.121 615.26 607.87 587.768 607.87H553.164C525.412 607.87 499.741 598.95 478.927 584.025C478.927 583.939 478.841 583.939 478.841 583.939C469.821 577.506 461.756 569.872 454.818 561.294C453.603 562.924 452.129 564.382 450.481 565.583C423.336 585.74 393.589 567.041 393.589 541.48V435.033C393.589 417.02 408.333 402.352 426.545 402.352C426.545 402.953 426.545 332.102 426.545 402.352V339.993C426.545 287.413 468.087 244.44 520.469 241.18V216.305H494.018C480.055 216.305 468.694 205.154 468.694 191.259V178.049C468.694 164.24 480.055 153.003 494.018 153.003H646.741C660.791 153.003 672.065 164.24 672.065 178.049V191.259C672.065 205.154 660.791 216.305 646.741 216.305H620.377V241.18C672.759 244.354 714.301 287.413 714.301 339.993V402.352C732.513 402.352 747.17 417.02 747.17 435.033V435.033Z" fill="#173B71" fill-opacity="0.4"/>
</g>
<path d="M594.084 186.675H526.958C517.905 186.675 510.567 193.904 510.567 202.822V307.65C510.567 316.568 517.905 323.797 526.958 323.797H594.084C603.136 323.797 610.475 316.568 610.475 307.65V202.822C610.475 193.904 603.136 186.675 594.084 186.675Z" fill="url(#paint0_linear_436_1173)"/>
<path d="M636.839 146.606H484.115C470.129 146.606 458.792 157.776 458.792 171.553V184.71C458.792 198.488 470.129 209.657 484.115 209.657H636.839C650.825 209.657 662.163 198.488 662.163 184.71V171.553C662.163 157.776 650.825 146.606 636.839 146.606Z" fill="url(#paint1_linear_436_1173)"/>
<path d="M704.312 332.853V474.93C704.312 516.622 683.498 553.53 651.583 576.17C630.855 590.95 605.271 599.665 577.779 599.665H543.176C515.423 599.665 489.753 590.779 468.939 575.914C468.939 575.828 468.852 575.828 468.852 575.828C437.197 553.188 416.643 516.451 416.643 474.93V332.853C416.643 278.431 461.48 234.262 516.724 234.262H604.23C659.475 234.262 704.312 278.431 704.312 332.853Z" fill="url(#paint2_linear_436_1173)"/>
<path d="M525.397 281.423H595.471C626.692 281.423 652.016 306.37 652.016 337.126C652.016 353.188 638.747 366.174 622.53 366.174H498.425C482.121 366.174 468.938 353.102 468.938 337.126C468.938 306.37 494.262 281.423 525.484 281.423H525.397Z" fill="url(#paint3_linear_436_1173)"/>
<path d="M449.686 495.691V539.605C449.686 546.696 446.303 553.36 440.579 557.631C413.434 577.708 383.688 559.084 383.688 533.624V427.6C383.688 409.659 398.431 395.05 416.643 395.05V463.226C416.643 472.795 424.535 480.57 434.249 480.57C442.748 480.57 449.686 487.404 449.686 495.777V495.691Z" fill="url(#paint4_linear_436_1173)"/>
<path d="M671.27 495.691V539.605C671.27 546.696 674.652 553.36 680.376 557.631C707.521 577.708 737.268 559.084 737.268 533.624V427.6C737.268 409.659 722.524 395.05 704.312 395.05V463.226C704.312 472.795 696.42 480.57 686.707 480.57C678.208 480.57 671.27 487.404 671.27 495.777V495.691Z" fill="url(#paint5_linear_436_1173)"/>
<path d="M652.016 450.754V567.884C652.016 570.704 651.843 573.438 651.583 576.171C630.855 590.952 605.271 599.666 577.779 599.666H543.176C515.423 599.666 489.753 590.781 468.938 575.915V445.457C468.938 424.782 485.937 407.951 506.924 407.951H608.653C632.59 407.951 652.016 427.088 652.016 450.754Z" fill="url(#paint6_linear_436_1173)"/>
<path d="M515.597 555.495C526.709 555.495 535.717 546.621 535.717 535.674C535.717 524.728 526.709 515.854 515.597 515.854C504.485 515.854 495.477 524.728 495.477 535.674C495.477 546.621 504.485 555.495 515.597 555.495Z" fill="white"/>
<path d="M605.358 555.495C616.47 555.495 625.478 546.621 625.478 535.674C625.478 524.728 616.47 515.854 605.358 515.854C594.245 515.854 585.237 524.728 585.237 535.674C585.237 546.621 594.245 555.495 605.358 555.495Z" fill="white"/>
<path d="M515.597 483.729C526.709 483.729 535.717 474.855 535.717 463.909C535.717 452.962 526.709 444.088 515.597 444.088C504.485 444.088 495.477 452.962 495.477 463.909C495.477 474.855 504.485 483.729 515.597 483.729Z" fill="white"/>
<path d="M605.358 483.729C616.47 483.729 625.478 474.855 625.478 463.909C625.478 452.962 616.47 444.088 605.358 444.088C594.245 444.088 585.237 452.962 585.237 463.909C585.237 474.855 594.245 483.729 605.358 483.729Z" fill="white"/>
</g>
<path d="M719.405 93.7492C737.855 93.7492 752.811 78.8069 752.811 60.3746C752.811 41.9423 737.855 27 719.405 27C700.956 27 686 41.9423 686 60.3746C686 78.8069 700.956 93.7492 719.405 93.7492Z" fill="#7F8FC8"/>
<path d="M367.703 125.375C376.927 125.375 384.405 117.903 384.405 108.687C384.405 99.4712 376.927 92 367.703 92C358.478 92 351 99.4712 351 108.687C351 117.903 358.478 125.375 367.703 125.375Z" fill="#F598A2"/>
<g filter="url(#filter2_d_436_1173)">
<path d="M311.619 392.075V509.057C311.619 522.905 300.404 534.125 286.562 534.125H205.532C201.607 534.125 197.954 536.13 195.844 539.442L192.412 544.836C189.952 548.71 185.684 551.049 181.098 551.049H141.274C136.688 551.049 132.421 548.702 129.961 544.836L126.111 538.789C124.266 535.88 121.054 534.117 117.615 534.117H99.0201C85.186 534.117 73.9639 522.898 73.9639 509.05V392.075C73.9639 378.227 85.1784 367.008 99.0201 367.008H116.833C120.257 367.008 123.446 368.762 125.291 371.649L129.877 378.865C132.39 382.808 136.734 385.201 141.411 385.201H180.946C185.624 385.201 189.982 382.808 192.495 378.858L197.081 371.641C198.919 368.755 202.1 367 205.524 367H286.555C300.396 367 311.611 378.227 311.611 392.068L311.619 392.075Z" fill="url(#paint7_linear_436_1173)"/>
</g>
<g filter="url(#filter3_d_436_1173)">
<path d="M248.424 447.527H113.135C107.017 447.527 102.057 452.489 102.057 458.61C102.057 464.731 107.017 469.693 113.135 469.693H248.424C254.542 469.693 259.502 464.731 259.502 458.61C259.502 452.489 254.542 447.527 248.424 447.527Z" fill="white"/>
</g>
<g filter="url(#filter4_d_436_1173)">
<path d="M153.05 408.787H113.135C107.017 408.787 102.057 413.749 102.057 419.87C102.057 425.991 107.017 430.953 113.135 430.953H153.05C159.169 430.953 164.128 425.991 164.128 419.87C164.128 413.749 159.169 408.787 153.05 408.787Z" fill="white"/>
</g>
<g filter="url(#filter5_d_436_1173)">
<path d="M311.619 196.075V313.057C311.619 326.905 300.404 338.125 286.562 338.125H205.532C201.607 338.125 197.954 340.13 195.844 343.442L192.412 348.836C189.952 352.71 185.684 355.049 181.098 355.049H141.274C136.688 355.049 132.421 352.702 129.961 348.836L126.111 342.789C124.266 339.88 121.054 338.117 117.615 338.117H99.0201C85.186 338.117 73.9639 326.898 73.9639 313.05V196.075C73.9639 182.227 85.1784 171.008 99.0201 171.008H116.833C120.257 171.008 123.446 172.762 125.291 175.649L129.877 182.865C132.39 186.808 136.734 189.201 141.411 189.201H180.946C185.624 189.201 189.982 186.808 192.495 182.858L197.081 175.641C198.919 172.755 202.1 171 205.524 171H286.555C300.396 171 311.611 182.227 311.611 196.068L311.619 196.075Z" fill="url(#paint8_linear_436_1173)"/>
</g>
<g filter="url(#filter6_d_436_1173)">
<path d="M248.424 251.527H113.135C107.017 251.527 102.057 256.489 102.057 262.61C102.057 268.731 107.017 273.693 113.135 273.693H248.424C254.542 273.693 259.502 268.731 259.502 262.61C259.502 256.489 254.542 251.527 248.424 251.527Z" fill="white"/>
</g>
<g filter="url(#filter7_d_436_1173)">
<path d="M153.05 212.787H113.135C107.017 212.787 102.057 217.749 102.057 223.87C102.057 229.991 107.017 234.953 113.135 234.953H153.05C159.169 234.953 164.128 229.991 164.128 223.87C164.128 217.749 159.169 212.787 153.05 212.787Z" fill="white"/>
</g>
<circle cx="771" cy="346" r="21" fill="#FFE7AB"/>
<defs>
<filter id="filter0_d_436_1173" x="78.7646" y="19.75" width="771.795" height="541.158" filterUnits="userSpaceOnUse" color-interpolation-filters="sRGB">
<feFlood flood-opacity="0" result="BackgroundImageFix"/>
<feColorMatrix in="SourceAlpha" type="matrix" values="0 0 0 0 0 0 0 0 0 0 0 0 0 0 0 0 0 0 127 0" result="hardAlpha"/>
<feOffset dy="31"/>
<feGaussianBlur stdDeviation="33.5"/>
<feComposite in2="hardAlpha" operator="out"/>
<feColorMatrix type="matrix" values="0 0 0 0 0 0 0 0 0 0 0 0 0 0 0 0 0 0 0.25 0"/>
<feBlend mode="normal" in2="BackgroundImageFix" result="effect1_dropShadow_436_1173"/>
<feBlend mode="normal" in="SourceGraphic" in2="effect1_dropShadow_436_1173" result="shape"/>
</filter>
<filter id="filter1_f_436_1173" x="233.328" y="25.3389" width="566.43" height="611.854" filterUnits="userSpaceOnUse" color-interpolation-filters="sRGB">
<feFlood flood-opacity="0" result="BackgroundImageFix"/>
<feBlend mode="normal" in="SourceGraphic" in2="BackgroundImageFix" result="shape"/>
<feGaussianBlur stdDeviation="10" result="effect1_foregroundBlur_436_1173"/>
</filter>
<filter id="filter2_d_436_1173" x="64.9639" y="362" width="255.655" height="202.049" filterUnits="userSpaceOnUse" color-interpolation-filters="sRGB">
<feFlood flood-opacity="0" result="BackgroundImageFix"/>
<feColorMatrix in="SourceAlpha" type="matrix" values="0 0 0 0 0 0 0 0 0 0 0 0 0 0 0 0 0 0 127 0" result="hardAlpha"/>
<feOffset dy="4"/>
<feGaussianBlur stdDeviation="4.5"/>
<feComposite in2="hardAlpha" operator="out"/>
<feColorMatrix type="matrix" values="0 0 0 0 0 0 0 0 0 0 0 0 0 0 0 0 0 0 0.25 0"/>
<feBlend mode="normal" in2="BackgroundImageFix" result="effect1_dropShadow_436_1173"/>
<feBlend mode="normal" in="SourceGraphic" in2="effect1_dropShadow_436_1173" result="shape"/>
</filter>
<filter id="filter3_d_436_1173" x="95.0571" y="444.527" width="171.444" height="36.166" filterUnits="userSpaceOnUse" color-interpolation-filters="sRGB">
<feFlood flood-opacity="0" result="BackgroundImageFix"/>
<feColorMatrix in="SourceAlpha" type="matrix" values="0 0 0 0 0 0 0 0 0 0 0 0 0 0 0 0 0 0 127 0" result="hardAlpha"/>
<feOffset dy="4"/>
<feGaussianBlur stdDeviation="3.5"/>
<feComposite in2="hardAlpha" operator="out"/>
<feColorMatrix type="matrix" values="0 0 0 0 0 0 0 0 0 0 0 0 0 0 0 0 0 0 0.25 0"/>
<feBlend mode="normal" in2="BackgroundImageFix" result="effect1_dropShadow_436_1173"/>
<feBlend mode="normal" in="SourceGraphic" in2="effect1_dropShadow_436_1173" result="shape"/>
</filter>
<filter id="filter4_d_436_1173" x="95.0571" y="405.787" width="76.0713" height="36.166" filterUnits="userSpaceOnUse" color-interpolation-filters="sRGB">
<feFlood flood-opacity="0" result="BackgroundImageFix"/>
<feColorMatrix in="SourceAlpha" type="matrix" values="0 0 0 0 0 0 0 0 0 0 0 0 0 0 0 0 0 0 127 0" result="hardAlpha"/>
<feOffset dy="4"/>
<feGaussianBlur stdDeviation="3.5"/>
<feComposite in2="hardAlpha" operator="out"/>
<feColorMatrix type="matrix" values="0 0 0 0 0 0 0 0 0 0 0 0 0 0 0 0 0 0 0.25 0"/>
<feBlend mode="normal" in2="BackgroundImageFix" result="effect1_dropShadow_436_1173"/>
<feBlend mode="normal" in="SourceGraphic" in2="effect1_dropShadow_436_1173" result="shape"/>
</filter>
<filter id="filter5_d_436_1173" x="64.9639" y="166" width="255.655" height="202.049" filterUnits="userSpaceOnUse" color-interpolation-filters="sRGB">
<feFlood flood-opacity="0" result="BackgroundImageFix"/>
<feColorMatrix in="SourceAlpha" type="matrix" values="0 0 0 0 0 0 0 0 0 0 0 0 0 0 0 0 0 0 127 0" result="hardAlpha"/>
<feOffset dy="4"/>
<feGaussianBlur stdDeviation="4.5"/>
<feComposite in2="hardAlpha" operator="out"/>
<feColorMatrix type="matrix" values="0 0 0 0 0 0 0 0 0 0 0 0 0 0 0 0 0 0 0.25 0"/>
<feBlend mode="normal" in2="BackgroundImageFix" result="effect1_dropShadow_436_1173"/>
<feBlend mode="normal" in="SourceGraphic" in2="effect1_dropShadow_436_1173" result="shape"/>
</filter>
<filter id="filter6_d_436_1173" x="95.0571" y="248.527" width="171.444" height="36.166" filterUnits="userSpaceOnUse" color-interpolation-filters="sRGB">
<feFlood flood-opacity="0" result="BackgroundImageFix"/>
<feColorMatrix in="SourceAlpha" type="matrix" values="0 0 0 0 0 0 0 0 0 0 0 0 0 0 0 0 0 0 127 0" result="hardAlpha"/>
<feOffset dy="4"/>
<feGaussianBlur stdDeviation="3.5"/>
<feComposite in2="hardAlpha" operator="out"/>
<feColorMatrix type="matrix" values="0 0 0 0 0 0 0 0 0 0 0 0 0 0 0 0 0 0 0.25 0"/>
<feBlend mode="normal" in2="BackgroundImageFix" result="effect1_dropShadow_436_1173"/>
<feBlend mode="normal" in="SourceGraphic" in2="effect1_dropShadow_436_1173" result="shape"/>
</filter>
<filter id="filter7_d_436_1173" x="95.0571" y="209.787" width="76.0713" height="36.166" filterUnits="userSpaceOnUse" color-interpolation-filters="sRGB">
<feFlood flood-opacity="0" result="BackgroundImageFix"/>
<feColorMatrix in="SourceAlpha" type="matrix" values="0 0 0 0 0 0 0 0 0 0 0 0 0 0 0 0 0 0 127 0" result="hardAlpha"/>
<feOffset dy="4"/>
<feGaussianBlur stdDeviation="3.5"/>
<feComposite in2="hardAlpha" operator="out"/>
<feColorMatrix type="matrix" values="0 0 0 0 0 0 0 0 0 0 0 0 0 0 0 0 0 0 0.25 0"/>
<feBlend mode="normal" in2="BackgroundImageFix" result="effect1_dropShadow_436_1173"/>
<feBlend mode="normal" in="SourceGraphic" in2="effect1_dropShadow_436_1173" result="shape"/>
</filter>
<linearGradient id="paint0_linear_436_1173" x1="510.567" y1="255.193" x2="610.475" y2="255.193" gradientUnits="userSpaceOnUse">
<stop stop-color="#F7A299"/>
<stop offset="1" stop-color="#D8566E"/>
</linearGradient>
<linearGradient id="paint1_linear_436_1173" x1="458.792" y1="178.132" x2="662.163" y2="178.132" gradientUnits="userSpaceOnUse">
<stop stop-color="#F7A299"/>
<stop offset="1" stop-color="#D8566E"/>
</linearGradient>
<linearGradient id="paint2_linear_436_1173" x1="416.643" y1="416.92" x2="704.312" y2="416.92" gradientUnits="userSpaceOnUse">
<stop stop-color="#6992C4"/>
<stop offset="1" stop-color="#4E639E"/>
</linearGradient>
<linearGradient id="paint3_linear_436_1173" x1="648.872" y1="324.061" x2="469.125" y2="324.061" gradientUnits="userSpaceOnUse">
<stop stop-color="#FFEAAF"/>
<stop offset="1" stop-color="#FEE8AB"/>
</linearGradient>
<linearGradient id="paint4_linear_436_1173" x1="383.688" y1="480.484" x2="449.686" y2="480.484" gradientUnits="userSpaceOnUse">
<stop stop-color="#A9BBE0"/>
<stop offset="1" stop-color="#CADAF0"/>
</linearGradient>
<linearGradient id="paint5_linear_436_1173" x1="671.27" y1="146.607" x2="737.268" y2="146.607" gradientUnits="userSpaceOnUse">
<stop stop-color="#A9BBE0"/>
<stop offset="1" stop-color="#CADAF0"/>
</linearGradient>
<linearGradient id="paint6_linear_436_1173" x1="468.938" y1="503.809" x2="652.016" y2="503.809" gradientUnits="userSpaceOnUse">
<stop stop-color="#B5CBE9"/>
<stop offset="1" stop-color="#7F8FC8"/>
</linearGradient>
<linearGradient id="paint7_linear_436_1173" x1="73.9639" y1="459.036" x2="311.619" y2="459.036" gradientUnits="userSpaceOnUse">
<stop stop-color="#5E7AC1"/>
<stop offset="1" stop-color="#3B509A"/>
</linearGradient>
<linearGradient id="paint8_linear_436_1173" x1="73.9639" y1="263.036" x2="311.619" y2="263.036" gradientUnits="userSpaceOnUse">
<stop stop-color="#5E7AC1"/>
<stop offset="1" stop-color="#3B509A"/>
</linearGradient>
<clipPath id="clip0_436_1173">
<rect width="526" height="591" fill="white" transform="translate(237 39)"/>
</clipPath>
</defs>
</svg>
