<svg width="560" height="585" viewBox="0 0 560 585" fill="none" xmlns="http://www.w3.org/2000/svg">
<g filter="url(#filter0_d_372_1654)">
<path d="M410 174C445.346 174 474 144.899 474 109C474 73.1015 445.346 44 410 44C374.654 44 346 73.1015 346 109C346 144.899 374.654 174 410 174Z" fill="#FFDAC1"/>
</g>
<g filter="url(#filter1_d_372_1654)">
<path d="M500 236C505.523 236 510 231.523 510 226C510 220.477 505.523 216 500 216C494.477 216 490 220.477 490 226C490 231.523 494.477 236 500 236Z" fill="#FFE7AB"/>
</g>
<g filter="url(#filter2_d_372_1654)">
<path d="M410 301C412.209 301 414 299.209 414 297C414 294.791 412.209 293 410 293C407.791 293 406 294.791 406 297C406 299.209 407.791 301 410 301Z" fill="#FFE7AB"/>
</g>
<path d="M390.765 134.138H387.689V49.8092C387.689 43.3995 386.427 37.0525 383.976 31.1307C381.524 25.2089 377.931 19.8282 373.401 15.2959C368.871 10.7635 363.494 7.16827 357.575 4.71538C351.657 2.26248 345.314 1 338.908 1H160.343C147.405 1 134.997 6.14239 125.849 15.2959C116.701 24.4494 111.562 36.8642 111.562 49.8092V512.452C111.562 518.862 112.823 525.209 115.275 531.131C117.726 537.053 121.319 542.433 125.849 546.966C130.379 551.498 135.756 555.093 141.675 557.546C147.593 559.999 153.937 561.261 160.343 561.261H338.908C351.845 561.261 364.253 556.119 373.401 546.965C382.549 537.812 387.688 525.397 387.688 512.452V194.165H390.765L390.765 134.138Z" fill="url(#paint0_linear_372_1654)"/>
<path d="M338.876 12.6934H315.569C316.641 15.323 317.05 18.176 316.761 21.0011C316.471 23.8262 315.491 26.5367 313.908 28.8937C312.325 31.2507 310.186 33.1819 307.681 34.5172C305.176 35.8525 302.382 36.5508 299.543 36.5507H197.245C194.407 36.5506 191.613 35.852 189.108 34.5167C186.603 33.1813 184.465 31.25 182.882 28.8931C181.298 26.5361 180.319 23.8257 180.029 21.0007C179.74 18.1758 180.149 15.3229 181.221 12.6934H159.451C149.789 12.6934 140.523 16.5336 133.691 23.3694C126.86 30.2051 123.021 39.4764 123.021 49.1436V511.115C123.021 520.782 126.86 530.053 133.691 536.889C140.523 543.725 149.789 547.565 159.451 547.565H338.876C348.538 547.565 357.804 543.725 364.635 536.889C371.467 530.053 375.305 520.782 375.305 511.115V49.1429C375.305 39.4758 371.467 30.2047 364.635 23.3691C357.803 16.5335 348.537 12.6934 338.876 12.6934Z" fill="white"/>
<path d="M228.3 196.719C228.299 193.49 229.149 190.318 230.763 187.522C232.377 184.725 234.699 182.404 237.495 180.791C234.7 179.176 231.53 178.326 228.303 178.325C225.076 178.325 221.906 179.174 219.111 180.789C216.317 182.403 213.996 184.725 212.382 187.521C210.768 190.317 209.919 193.489 209.919 196.718C209.919 199.947 210.768 203.119 212.382 205.915C213.996 208.711 216.317 211.033 219.111 212.647C221.906 214.262 225.076 215.111 228.303 215.111C231.53 215.111 234.7 214.26 237.495 212.645C234.699 211.033 232.377 208.712 230.763 205.916C229.149 203.12 228.299 199.948 228.3 196.719Z" fill="#C8D9F0"/>
<g filter="url(#filter3_d_372_1654)">
<path d="M101 484C121.987 484 139 466.987 139 446C139 425.013 121.987 408 101 408C80.0132 408 63 425.013 63 446C63 466.987 80.0132 484 101 484Z" fill="#FF9AA2"/>
</g>
<g filter="url(#filter4_d_372_1654)">
<path d="M62.5 148C73.2696 148 82 139.27 82 128.5C82 117.73 73.2696 109 62.5 109C51.7304 109 43 117.73 43 128.5C43 139.27 51.7304 148 62.5 148Z" fill="#FFE7AB"/>
</g>
<g filter="url(#filter5_d_372_1654)">
<path d="M390.5 517C399.613 517 407 509.613 407 500.5C407 491.387 399.613 484 390.5 484C381.387 484 374 491.387 374 500.5C374 509.613 381.387 517 390.5 517Z" fill="#7B91E2"/>
</g>
<path d="M251.408 196.719C251.408 193.49 252.257 190.318 253.871 187.521C255.485 184.725 257.807 182.404 260.603 180.791C257.809 179.176 254.639 178.326 251.412 178.325C248.185 178.325 245.014 179.174 242.22 180.789C239.425 182.403 237.104 184.725 235.49 187.521C233.877 190.317 233.027 193.489 233.027 196.718C233.027 199.947 233.877 203.119 235.49 205.915C237.104 208.711 239.425 211.033 242.22 212.647C245.014 214.262 248.185 215.111 251.412 215.111C254.639 215.111 257.809 214.26 260.603 212.645C257.808 211.033 255.486 208.712 253.872 205.916C252.257 203.12 251.408 199.948 251.408 196.719Z" fill="#C8D9F0"/>
<path d="M273.993 215.112C284.145 215.112 292.375 206.877 292.375 196.719C292.375 186.561 284.145 178.326 273.993 178.326C263.84 178.326 255.61 186.561 255.61 196.719C255.61 206.877 263.84 215.112 273.993 215.112Z" fill="#FFE7AB"/>
<path d="M304.715 254.167H197.579C196.559 254.166 195.581 253.76 194.86 253.038C194.138 252.317 193.733 251.338 193.731 250.318V143.12C193.733 142.099 194.138 141.121 194.86 140.399C195.581 139.678 196.559 139.272 197.579 139.271H304.715C305.734 139.272 306.712 139.678 307.434 140.399C308.155 141.121 308.56 142.099 308.562 143.12V250.318C308.56 251.338 308.155 252.317 307.434 253.038C306.712 253.76 305.734 254.166 304.715 254.167ZM197.579 140.811C196.967 140.812 196.38 141.055 195.947 141.488C195.514 141.921 195.271 142.508 195.27 143.121V250.318C195.271 250.931 195.514 251.518 195.947 251.951C196.38 252.384 196.967 252.627 197.579 252.628H304.715C305.326 252.627 305.913 252.384 306.346 251.951C306.779 251.518 307.022 250.931 307.023 250.318V143.121C307.022 142.508 306.779 141.921 306.346 141.488C305.913 141.055 305.326 140.812 304.715 140.811H197.579Z" fill="#CCCCCC"/>
<path d="M328.636 336.339H164.321V337.879H328.636V336.339Z" fill="#CCCCCC"/>
<path d="M169.51 326.725C172.376 326.725 174.7 324.4 174.7 321.533C174.7 318.665 172.376 316.341 169.51 316.341C166.645 316.341 164.321 318.665 164.321 321.533C164.321 324.4 166.645 326.725 169.51 326.725Z" fill="url(#paint1_linear_372_1654)"/>
<path d="M328.636 388.258H164.321V389.798H328.636V388.258Z" fill="#CCCCCC"/>
<path d="M169.51 378.644C172.376 378.644 174.7 376.319 174.7 373.452C174.7 370.584 172.376 368.26 169.51 368.26C166.645 368.26 164.321 370.584 164.321 373.452C164.321 376.319 166.645 378.644 169.51 378.644Z" fill="url(#paint2_linear_372_1654)"/>
<path d="M325.629 447.38H273.702C272.805 447.379 271.945 447.022 271.31 446.387C270.676 445.752 270.319 444.892 270.318 443.994V425.784C270.319 424.886 270.676 424.026 271.31 423.391C271.945 422.756 272.805 422.399 273.702 422.398H325.629C326.526 422.399 327.386 422.756 328.021 423.391C328.655 424.026 329.012 424.886 329.013 425.784V443.994C329.012 444.892 328.655 445.752 328.021 446.387C327.386 447.022 326.526 447.379 325.629 447.38Z" fill="url(#paint3_linear_372_1654)"/>
<path d="M186.437 326.725C189.303 326.725 191.626 324.4 191.626 321.533C191.626 318.665 189.303 316.341 186.437 316.341C183.571 316.341 181.248 318.665 181.248 321.533C181.248 324.4 183.571 326.725 186.437 326.725Z" fill="url(#paint4_linear_372_1654)"/>
<path d="M203.364 326.725C206.23 326.725 208.553 324.4 208.553 321.533C208.553 318.665 206.23 316.341 203.364 316.341C200.498 316.341 198.175 318.665 198.175 321.533C198.175 324.4 200.498 326.725 203.364 326.725Z" fill="url(#paint5_linear_372_1654)"/>
<path d="M186.437 378.644C189.303 378.644 191.626 376.319 191.626 373.452C191.626 370.584 189.303 368.26 186.437 368.26C183.571 368.26 181.248 370.584 181.248 373.452C181.248 376.319 183.571 378.644 186.437 378.644Z" fill="url(#paint6_linear_372_1654)"/>
<path d="M203.364 378.644C206.23 378.644 208.553 376.319 208.553 373.452C208.553 370.584 206.23 368.26 203.364 368.26C200.498 368.26 198.175 370.584 198.175 373.452C198.175 376.319 200.498 378.644 203.364 378.644Z" fill="url(#paint7_linear_372_1654)"/>
<path d="M424.542 368.205C424.91 368.374 425.265 368.572 425.602 368.797L459.324 354.396L460.527 345.508L474.001 345.426L473.205 365.811L428.697 377.588C428.603 377.898 428.491 378.201 428.36 378.497C427.717 379.871 426.682 381.024 425.386 381.811C424.09 382.599 422.59 382.985 421.075 382.922C419.559 382.86 418.097 382.35 416.87 381.458C415.643 380.567 414.707 379.332 414.179 377.91C413.652 376.487 413.556 374.94 413.903 373.464C414.251 371.987 415.028 370.646 416.135 369.609C417.242 368.572 418.63 367.886 420.126 367.636C421.622 367.386 423.158 367.584 424.542 368.205Z" fill="url(#paint8_linear_372_1654)"/>
<path d="M478.902 552.931H469.684L465.3 517.357L478.903 517.358L478.902 552.931Z" fill="#FFB8B8"/>
<path d="M463.101 550.295H480.877V561.494H451.908C451.908 558.524 453.087 555.675 455.186 553.575C457.285 551.475 460.132 550.295 463.101 550.295Z" fill="#444444"/>
<path d="M514.749 550.324L505.575 551.229L497.726 516.257L511.264 514.923L514.749 550.324Z" fill="#FFB8B8"/>
<path d="M498.765 549.252L516.456 547.508L517.553 558.653L488.724 561.495C488.58 560.031 488.725 558.553 489.152 557.146C489.579 555.739 490.278 554.429 491.211 553.292C492.143 552.156 493.29 551.214 494.586 550.52C495.883 549.827 497.303 549.396 498.765 549.252Z" fill="#444444"/>
<path d="M481.467 307.778C491.665 307.778 499.932 299.506 499.932 289.302C499.932 279.097 491.665 270.825 481.467 270.825C471.268 270.825 463.001 279.097 463.001 289.302C463.001 299.506 471.268 307.778 481.467 307.778Z" fill="url(#paint9_linear_372_1654)"/>
<path d="M467.624 545.737C466.832 545.739 466.065 545.461 465.457 544.952C464.85 544.443 464.442 543.736 464.305 542.956C459.534 516.457 443.939 429.811 443.566 427.411C443.558 427.356 443.554 427.3 443.555 427.244V420.784C443.554 420.549 443.628 420.319 443.765 420.128L445.825 417.241C445.923 417.102 446.051 416.987 446.2 416.906C446.349 416.824 446.515 416.778 446.685 416.771C458.43 416.22 496.895 414.605 498.753 416.928C500.62 419.262 499.96 426.336 499.809 427.731L499.817 427.876L517.098 538.455C517.233 539.337 517.016 540.237 516.493 540.96C515.97 541.683 515.184 542.171 514.305 542.318L503.511 544.097C502.707 544.227 501.884 544.063 501.19 543.636C500.497 543.209 499.98 542.547 499.733 541.771C496.394 531.097 485.201 495.192 481.321 481.299C481.297 481.211 481.241 481.134 481.165 481.084C481.089 481.034 480.997 481.014 480.907 481.026C480.816 481.039 480.734 481.085 480.674 481.154C480.615 481.223 480.583 481.312 480.584 481.403C480.778 494.647 481.246 528.437 481.408 540.107L481.425 541.364C481.432 542.215 481.12 543.038 480.551 543.67C479.981 544.302 479.195 544.697 478.348 544.777L467.94 545.723C467.834 545.733 467.729 545.737 467.624 545.737Z" fill="url(#paint10_linear_372_1654)"/>
<path d="M469.748 315.043C466.525 316.96 464.597 320.482 463.49 324.067C461.441 330.702 460.208 337.563 459.818 344.498L458.648 365.26L444.172 420.303C456.719 430.926 463.957 428.512 480.847 419.823C497.736 411.134 499.667 422.72 499.667 422.72L503.044 375.885L507.87 324.707C506.786 323.402 505.56 322.222 504.215 321.191C499.754 317.72 494.565 315.308 489.038 314.136C483.51 312.964 477.789 313.062 472.305 314.424L469.748 315.043Z" fill="url(#paint11_linear_372_1654)"/>
<path d="M465.046 379.321C465.435 379.468 465.812 379.645 466.174 379.851L499.516 363.152L500.07 354.106L513.824 353.157L514.561 373.779L470.003 388.523C469.639 390.084 468.809 391.498 467.622 392.575C466.436 393.653 464.95 394.344 463.362 394.556C461.773 394.768 460.158 394.491 458.731 393.763C457.304 393.034 456.132 391.888 455.372 390.476C454.611 389.065 454.298 387.455 454.475 385.862C454.651 384.268 455.308 382.766 456.358 381.555C457.408 380.344 458.802 379.482 460.354 379.083C461.906 378.684 463.542 378.767 465.046 379.321Z" fill="url(#paint12_linear_372_1654)"/>
<path d="M507.628 324.941C515.832 327.838 517.277 359.224 517.277 359.224C507.626 353.913 496.044 362.604 496.044 362.604C496.044 362.604 493.632 354.396 490.736 343.773C489.862 340.785 489.757 337.625 490.432 334.586C491.107 331.546 492.54 328.728 494.596 326.391C494.596 326.391 499.425 322.042 507.628 324.941Z" fill="url(#paint13_linear_372_1654)"/>
<path d="M498.025 294.187C495.724 292.345 492.585 295.693 492.585 295.693L490.744 279.118C490.744 279.118 479.241 280.497 471.878 278.658C464.516 276.819 463.366 285.334 463.366 285.334C462.986 281.895 462.909 278.428 463.136 274.975C463.595 270.831 469.578 266.687 480.161 263.925C490.744 261.162 496.266 273.133 496.266 273.133C503.629 276.816 500.325 296.029 498.025 294.187Z" fill="#2F2E41"/>
<rect x="90" y="561" width="470" height="24" rx="12" fill="#B4CBF0"/>
<defs>
<filter id="filter0_d_372_1654" x="337" y="39" width="146" height="148" filterUnits="userSpaceOnUse" color-interpolation-filters="sRGB">
<feFlood flood-opacity="0" result="BackgroundImageFix"/>
<feColorMatrix in="SourceAlpha" type="matrix" values="0 0 0 0 0 0 0 0 0 0 0 0 0 0 0 0 0 0 127 0" result="hardAlpha"/>
<feOffset dy="4"/>
<feGaussianBlur stdDeviation="4.5"/>
<feComposite in2="hardAlpha" operator="out"/>
<feColorMatrix type="matrix" values="0 0 0 0 0 0 0 0 0 0 0 0 0 0 0 0 0 0 0.25 0"/>
<feBlend mode="normal" in2="BackgroundImageFix" result="effect1_dropShadow_372_1654"/>
<feBlend mode="normal" in="SourceGraphic" in2="effect1_dropShadow_372_1654" result="shape"/>
</filter>
<filter id="filter1_d_372_1654" x="481" y="211" width="38" height="38" filterUnits="userSpaceOnUse" color-interpolation-filters="sRGB">
<feFlood flood-opacity="0" result="BackgroundImageFix"/>
<feColorMatrix in="SourceAlpha" type="matrix" values="0 0 0 0 0 0 0 0 0 0 0 0 0 0 0 0 0 0 127 0" result="hardAlpha"/>
<feOffset dy="4"/>
<feGaussianBlur stdDeviation="4.5"/>
<feComposite in2="hardAlpha" operator="out"/>
<feColorMatrix type="matrix" values="0 0 0 0 0 0 0 0 0 0 0 0 0 0 0 0 0 0 0.25 0"/>
<feBlend mode="normal" in2="BackgroundImageFix" result="effect1_dropShadow_372_1654"/>
<feBlend mode="normal" in="SourceGraphic" in2="effect1_dropShadow_372_1654" result="shape"/>
</filter>
<filter id="filter2_d_372_1654" x="397" y="288" width="26" height="26" filterUnits="userSpaceOnUse" color-interpolation-filters="sRGB">
<feFlood flood-opacity="0" result="BackgroundImageFix"/>
<feColorMatrix in="SourceAlpha" type="matrix" values="0 0 0 0 0 0 0 0 0 0 0 0 0 0 0 0 0 0 127 0" result="hardAlpha"/>
<feOffset dy="4"/>
<feGaussianBlur stdDeviation="4.5"/>
<feComposite in2="hardAlpha" operator="out"/>
<feColorMatrix type="matrix" values="0 0 0 0 0 0 0 0 0 0 0 0 0 0 0 0 0 0 0.25 0"/>
<feBlend mode="normal" in2="BackgroundImageFix" result="effect1_dropShadow_372_1654"/>
<feBlend mode="normal" in="SourceGraphic" in2="effect1_dropShadow_372_1654" result="shape"/>
</filter>
<filter id="filter3_d_372_1654" x="54" y="403" width="94" height="94" filterUnits="userSpaceOnUse" color-interpolation-filters="sRGB">
<feFlood flood-opacity="0" result="BackgroundImageFix"/>
<feColorMatrix in="SourceAlpha" type="matrix" values="0 0 0 0 0 0 0 0 0 0 0 0 0 0 0 0 0 0 127 0" result="hardAlpha"/>
<feOffset dy="4"/>
<feGaussianBlur stdDeviation="4.5"/>
<feComposite in2="hardAlpha" operator="out"/>
<feColorMatrix type="matrix" values="0 0 0 0 0 0 0 0 0 0 0 0 0 0 0 0 0 0 0.25 0"/>
<feBlend mode="normal" in2="BackgroundImageFix" result="effect1_dropShadow_372_1654"/>
<feBlend mode="normal" in="SourceGraphic" in2="effect1_dropShadow_372_1654" result="shape"/>
</filter>
<filter id="filter4_d_372_1654" x="34" y="104" width="57" height="57" filterUnits="userSpaceOnUse" color-interpolation-filters="sRGB">
<feFlood flood-opacity="0" result="BackgroundImageFix"/>
<feColorMatrix in="SourceAlpha" type="matrix" values="0 0 0 0 0 0 0 0 0 0 0 0 0 0 0 0 0 0 127 0" result="hardAlpha"/>
<feOffset dy="4"/>
<feGaussianBlur stdDeviation="4.5"/>
<feComposite in2="hardAlpha" operator="out"/>
<feColorMatrix type="matrix" values="0 0 0 0 0 0 0 0 0 0 0 0 0 0 0 0 0 0 0.25 0"/>
<feBlend mode="normal" in2="BackgroundImageFix" result="effect1_dropShadow_372_1654"/>
<feBlend mode="normal" in="SourceGraphic" in2="effect1_dropShadow_372_1654" result="shape"/>
</filter>
<filter id="filter5_d_372_1654" x="365" y="479" width="51" height="51" filterUnits="userSpaceOnUse" color-interpolation-filters="sRGB">
<feFlood flood-opacity="0" result="BackgroundImageFix"/>
<feColorMatrix in="SourceAlpha" type="matrix" values="0 0 0 0 0 0 0 0 0 0 0 0 0 0 0 0 0 0 127 0" result="hardAlpha"/>
<feOffset dy="4"/>
<feGaussianBlur stdDeviation="4.5"/>
<feComposite in2="hardAlpha" operator="out"/>
<feColorMatrix type="matrix" values="0 0 0 0 0 0 0 0 0 0 0 0 0 0 0 0 0 0 0.25 0"/>
<feBlend mode="normal" in2="BackgroundImageFix" result="effect1_dropShadow_372_1654"/>
<feBlend mode="normal" in="SourceGraphic" in2="effect1_dropShadow_372_1654" result="shape"/>
</filter>
<linearGradient id="paint0_linear_372_1654" x1="111.562" y1="281.165" x2="390.765" y2="281.165" gradientUnits="userSpaceOnUse">
<stop stop-color="#5E7AC1"/>
<stop offset="1" stop-color="#3B509A"/>
</linearGradient>
<linearGradient id="paint1_linear_372_1654" x1="169.51" y1="316.341" x2="169.51" y2="326.725" gradientUnits="userSpaceOnUse">
<stop stop-color="#7B91E2"/>
<stop offset="0.927083" stop-color="#5670C9"/>
</linearGradient>
<linearGradient id="paint2_linear_372_1654" x1="169.51" y1="368.26" x2="169.51" y2="378.644" gradientUnits="userSpaceOnUse">
<stop stop-color="#7B91E2"/>
<stop offset="0.927083" stop-color="#5670C9"/>
</linearGradient>
<linearGradient id="paint3_linear_372_1654" x1="270.318" y1="434.889" x2="329.013" y2="434.889" gradientUnits="userSpaceOnUse">
<stop stop-color="#F7A299"/>
<stop offset="1" stop-color="#D8566E"/>
</linearGradient>
<linearGradient id="paint4_linear_372_1654" x1="186.437" y1="316.341" x2="186.437" y2="326.725" gradientUnits="userSpaceOnUse">
<stop stop-color="#7B91E2"/>
<stop offset="0.927083" stop-color="#5670C9"/>
</linearGradient>
<linearGradient id="paint5_linear_372_1654" x1="203.364" y1="316.341" x2="203.364" y2="326.725" gradientUnits="userSpaceOnUse">
<stop stop-color="#7B91E2"/>
<stop offset="0.927083" stop-color="#5670C9"/>
</linearGradient>
<linearGradient id="paint6_linear_372_1654" x1="186.437" y1="368.26" x2="186.437" y2="378.644" gradientUnits="userSpaceOnUse">
<stop stop-color="#7B91E2"/>
<stop offset="0.927083" stop-color="#5670C9"/>
</linearGradient>
<linearGradient id="paint7_linear_372_1654" x1="203.364" y1="368.26" x2="203.364" y2="378.644" gradientUnits="userSpaceOnUse">
<stop stop-color="#7B91E2"/>
<stop offset="0.927083" stop-color="#5670C9"/>
</linearGradient>
<linearGradient id="paint8_linear_372_1654" x1="413.698" y1="364.181" x2="474.001" y2="364.181" gradientUnits="userSpaceOnUse">
<stop stop-color="#FBCFC5"/>
<stop offset="1" stop-color="#F9AB93"/>
</linearGradient>
<linearGradient id="paint9_linear_372_1654" x1="463.001" y1="289.305" x2="499.933" y2="289.305" gradientUnits="userSpaceOnUse">
<stop stop-color="#FBCFC5"/>
<stop offset="1" stop-color="#F9AB93"/>
</linearGradient>
<linearGradient id="paint10_linear_372_1654" x1="480.346" y1="415.71" x2="480.346" y2="545.737" gradientUnits="userSpaceOnUse">
<stop stop-color="#7B91E2"/>
<stop offset="0.927083" stop-color="#5670C9"/>
</linearGradient>
<linearGradient id="paint11_linear_372_1654" x1="444.172" y1="370.335" x2="507.87" y2="370.335" gradientUnits="userSpaceOnUse">
<stop stop-color="#F7A299"/>
<stop offset="1" stop-color="#D8566E"/>
</linearGradient>
<linearGradient id="paint12_linear_372_1654" x1="454.427" y1="373.895" x2="514.561" y2="373.895" gradientUnits="userSpaceOnUse">
<stop stop-color="#FBCFC5"/>
<stop offset="1" stop-color="#F9AB93"/>
</linearGradient>
<linearGradient id="paint13_linear_372_1654" x1="489.993" y1="343.274" x2="517.277" y2="343.274" gradientUnits="userSpaceOnUse">
<stop stop-color="#F7A299"/>
<stop offset="1" stop-color="#D8566E"/>
</linearGradient>
</defs>
</svg>
